<mxfile host="app.diagrams.net" agent="Mozilla/5.0 (Windows NT 10.0; Win64; x64) AppleWebKit/537.36 (KHTML, like Gecko) Chrome/139.0.0.0 Safari/537.36" version="28.1.2">
  <diagram name="ERD" id="ERD1">
    <mxGraphModel dx="571809" dy="380362" grid="1" gridSize="10" guides="1" tooltips="1" connect="1" arrows="1" fold="1" page="1" pageScale="1" pageWidth="827" pageHeight="1169" math="0" shadow="0">
      <root>
        <mxCell id="0" />
        <mxCell id="1" parent="0" />
        <mxCell id="edge1" style="endArrow=block;" parent="1" edge="1" />
        <mxCell id="edge2" style="endArrow=block;" parent="1" edge="1" />
        <mxCell id="edge3" style="endArrow=block;" parent="1" edge="1" />
        <mxCell id="edge4" style="endArrow=block;" parent="1" edge="1" />
        <mxCell id="edge5" style="endArrow=block;" parent="1" edge="1" />
        <mxCell id="edge6" style="endArrow=block;" parent="1" edge="1" />
        <mxCell id="btj04kFpX4r5q9AqIZzk-1" value="Text" style="text;html=1;align=center;verticalAlign=middle;resizable=0;points=[];autosize=1;strokeColor=none;fillColor=none;" parent="1" vertex="1">
          <mxGeometry x="-3105" y="-1912" width="50" height="30" as="geometry" />
        </mxCell>
        <mxCell id="btj04kFpX4r5q9AqIZzk-2" value="Contact Details" style="whiteSpace=wrap;html=1;align=center;" parent="1" vertex="1">
          <mxGeometry x="-31440" y="-15894.67" width="100" height="40" as="geometry" />
        </mxCell>
        <mxCell id="btj04kFpX4r5q9AqIZzk-4" value="Has" style="shape=rhombus;perimeter=rhombusPerimeter;whiteSpace=wrap;html=1;align=center;" parent="1" vertex="1">
          <mxGeometry x="-31602.5" y="-15820" width="60" height="60" as="geometry" />
        </mxCell>
        <mxCell id="btj04kFpX4r5q9AqIZzk-6" value="" style="endArrow=none;html=1;rounded=0;exitX=0.5;exitY=0;exitDx=0;exitDy=0;entryX=0.5;entryY=1;entryDx=0;entryDy=0;" parent="1" source="btj04kFpX4r5q9AqIZzk-4" target="btj04kFpX4r5q9AqIZzk-2" edge="1">
          <mxGeometry relative="1" as="geometry">
            <mxPoint x="-31540" y="-15960" as="sourcePoint" />
            <mxPoint x="-31380" y="-15960" as="targetPoint" />
            <Array as="points">
              <mxPoint x="-31390" y="-15820" />
            </Array>
          </mxGeometry>
        </mxCell>
        <mxCell id="btj04kFpX4r5q9AqIZzk-7" value="1" style="resizable=0;html=1;whiteSpace=wrap;align=right;verticalAlign=bottom;" parent="btj04kFpX4r5q9AqIZzk-6" connectable="0" vertex="1">
          <mxGeometry x="1" relative="1" as="geometry">
            <mxPoint x="-10" y="20" as="offset" />
          </mxGeometry>
        </mxCell>
        <mxCell id="btj04kFpX4r5q9AqIZzk-9" value="Address" style="ellipse;whiteSpace=wrap;html=1;align=center;" parent="1" vertex="1">
          <mxGeometry x="-31340" y="-15984.67" width="60" height="40" as="geometry" />
        </mxCell>
        <mxCell id="btj04kFpX4r5q9AqIZzk-10" value="Emal" style="ellipse;whiteSpace=wrap;html=1;align=center;" parent="1" vertex="1">
          <mxGeometry x="-31494" y="-15974.67" width="50" height="40" as="geometry" />
        </mxCell>
        <mxCell id="btj04kFpX4r5q9AqIZzk-11" value="Phone&amp;nbsp;&lt;div&gt;Number&lt;/div&gt;" style="ellipse;whiteSpace=wrap;html=1;align=center;" parent="1" vertex="1">
          <mxGeometry x="-31425" y="-16004.67" width="70" height="40" as="geometry" />
        </mxCell>
        <mxCell id="btj04kFpX4r5q9AqIZzk-12" value="" style="endArrow=none;html=1;rounded=0;exitX=0.5;exitY=1;exitDx=0;exitDy=0;entryX=0.5;entryY=0;entryDx=0;entryDy=0;" parent="1" source="btj04kFpX4r5q9AqIZzk-11" target="btj04kFpX4r5q9AqIZzk-2" edge="1">
          <mxGeometry relative="1" as="geometry">
            <mxPoint x="-31150" y="-15784.67" as="sourcePoint" />
            <mxPoint x="-30990" y="-15784.67" as="targetPoint" />
          </mxGeometry>
        </mxCell>
        <mxCell id="btj04kFpX4r5q9AqIZzk-13" value="" style="endArrow=none;html=1;rounded=0;exitX=0.5;exitY=1;exitDx=0;exitDy=0;entryX=0;entryY=0;entryDx=0;entryDy=0;" parent="1" source="btj04kFpX4r5q9AqIZzk-10" target="btj04kFpX4r5q9AqIZzk-2" edge="1">
          <mxGeometry relative="1" as="geometry">
            <mxPoint x="-31400" y="-15904.67" as="sourcePoint" />
            <mxPoint x="-31000" y="-15724.67" as="targetPoint" />
          </mxGeometry>
        </mxCell>
        <mxCell id="btj04kFpX4r5q9AqIZzk-14" value="" style="endArrow=none;html=1;rounded=0;exitX=0.5;exitY=1;exitDx=0;exitDy=0;entryX=1;entryY=0;entryDx=0;entryDy=0;" parent="1" source="btj04kFpX4r5q9AqIZzk-9" target="btj04kFpX4r5q9AqIZzk-2" edge="1">
          <mxGeometry relative="1" as="geometry">
            <mxPoint x="-31210" y="-15884.67" as="sourcePoint" />
            <mxPoint x="-30810" y="-15704.67" as="targetPoint" />
          </mxGeometry>
        </mxCell>
        <mxCell id="btj04kFpX4r5q9AqIZzk-16" value="&lt;span style=&quot;border-bottom: 1px dotted&quot;&gt;Person ID&lt;/span&gt;" style="ellipse;whiteSpace=wrap;html=1;align=center;" parent="1" vertex="1">
          <mxGeometry x="-31564" y="-15914.67" width="70" height="40" as="geometry" />
        </mxCell>
        <mxCell id="btj04kFpX4r5q9AqIZzk-17" value="" style="endArrow=none;html=1;rounded=0;exitX=1;exitY=0.5;exitDx=0;exitDy=0;entryX=0;entryY=0.5;entryDx=0;entryDy=0;" parent="1" source="btj04kFpX4r5q9AqIZzk-16" target="btj04kFpX4r5q9AqIZzk-2" edge="1">
          <mxGeometry relative="1" as="geometry">
            <mxPoint x="-31150" y="-15754.67" as="sourcePoint" />
            <mxPoint x="-30990" y="-15754.67" as="targetPoint" />
          </mxGeometry>
        </mxCell>
        <mxCell id="btj04kFpX4r5q9AqIZzk-18" value="" style="endArrow=none;html=1;rounded=0;exitX=0.5;exitY=1;exitDx=0;exitDy=0;entryX=0.75;entryY=1;entryDx=0;entryDy=0;" parent="1" source="btj04kFpX4r5q9AqIZzk-4" target="btj04kFpX4r5q9AqIZzk-21" edge="1">
          <mxGeometry relative="1" as="geometry">
            <mxPoint x="-31660" y="-15900" as="sourcePoint" />
            <mxPoint x="-31500" y="-15900" as="targetPoint" />
            <Array as="points">
              <mxPoint x="-31735" y="-15760" />
            </Array>
          </mxGeometry>
        </mxCell>
        <mxCell id="btj04kFpX4r5q9AqIZzk-19" value="1" style="resizable=0;html=1;whiteSpace=wrap;align=right;verticalAlign=bottom;" parent="btj04kFpX4r5q9AqIZzk-18" connectable="0" vertex="1">
          <mxGeometry x="1" relative="1" as="geometry">
            <mxPoint x="-10" as="offset" />
          </mxGeometry>
        </mxCell>
        <mxCell id="btj04kFpX4r5q9AqIZzk-21" value="Person" style="whiteSpace=wrap;html=1;align=center;" parent="1" vertex="1">
          <mxGeometry x="-31810.00000000003" y="-15900" width="100" height="40" as="geometry" />
        </mxCell>
        <mxCell id="btj04kFpX4r5q9AqIZzk-22" value="ID" style="ellipse;whiteSpace=wrap;html=1;align=center;fontStyle=4;" parent="1" vertex="1">
          <mxGeometry x="-31904" y="-15930" width="40" height="40" as="geometry" />
        </mxCell>
        <mxCell id="btj04kFpX4r5q9AqIZzk-24" value="Name" style="ellipse;whiteSpace=wrap;html=1;align=center;" parent="1" vertex="1">
          <mxGeometry x="-31850" y="-15960" width="60" height="40" as="geometry" />
        </mxCell>
        <mxCell id="btj04kFpX4r5q9AqIZzk-25" value="DOB&lt;span style=&quot;color: rgba(0, 0, 0, 0); font-family: monospace; font-size: 0px; text-align: start; text-wrap-mode: nowrap;&quot;&gt;%3CmxGraphModel%3E%3Croot%3E%3CmxCell%20id%3D%220%22%2F%3E%3CmxCell%20id%3D%221%22%20parent%3D%220%22%2F%3E%3CmxCell%20id%3D%222%22%20value%3D%22Emal%22%20style%3D%22ellipse%3BwhiteSpace%3Dwrap%3Bhtml%3D1%3Balign%3Dcenter%3B%22%20vertex%3D%221%22%20parent%3D%221%22%3E%3CmxGeometry%20x%3D%22-31864%22%20y%3D%22-16260%22%20width%3D%2250%22%20height%3D%2240%22%20as%3D%22geometry%22%2F%3E%3C%2FmxCell%3E%3C%2Froot%3E%3C%2FmxGraphModel%3E&lt;/span&gt;" style="ellipse;whiteSpace=wrap;html=1;align=center;" parent="1" vertex="1">
          <mxGeometry x="-31670" y="-15910" width="50" height="40" as="geometry" />
        </mxCell>
        <mxCell id="btj04kFpX4r5q9AqIZzk-26" value="Gender" style="ellipse;whiteSpace=wrap;html=1;align=center;" parent="1" vertex="1">
          <mxGeometry x="-31730" y="-15960" width="60" height="40" as="geometry" />
        </mxCell>
        <mxCell id="btj04kFpX4r5q9AqIZzk-27" value="" style="endArrow=none;html=1;rounded=0;exitX=0.5;exitY=1;exitDx=0;exitDy=0;entryX=0;entryY=0;entryDx=0;entryDy=0;" parent="1" source="btj04kFpX4r5q9AqIZzk-24" target="btj04kFpX4r5q9AqIZzk-21" edge="1">
          <mxGeometry relative="1" as="geometry">
            <mxPoint x="-31620" y="-15820" as="sourcePoint" />
            <mxPoint x="-31460" y="-15820" as="targetPoint" />
          </mxGeometry>
        </mxCell>
        <mxCell id="btj04kFpX4r5q9AqIZzk-29" value="" style="endArrow=none;html=1;rounded=0;exitX=1;exitY=0.5;exitDx=0;exitDy=0;entryX=0;entryY=0.5;entryDx=0;entryDy=0;" parent="1" source="btj04kFpX4r5q9AqIZzk-22" target="btj04kFpX4r5q9AqIZzk-21" edge="1">
          <mxGeometry relative="1" as="geometry">
            <mxPoint x="-31820" y="-15910" as="sourcePoint" />
            <mxPoint x="-31810" y="-15890" as="targetPoint" />
          </mxGeometry>
        </mxCell>
        <mxCell id="btj04kFpX4r5q9AqIZzk-30" value="" style="endArrow=none;html=1;rounded=0;exitX=0.5;exitY=1;exitDx=0;exitDy=0;entryX=0.674;entryY=0.019;entryDx=0;entryDy=0;entryPerimeter=0;" parent="1" source="btj04kFpX4r5q9AqIZzk-26" target="btj04kFpX4r5q9AqIZzk-21" edge="1">
          <mxGeometry relative="1" as="geometry">
            <mxPoint x="-31600" y="-15860" as="sourcePoint" />
            <mxPoint x="-31590" y="-15840" as="targetPoint" />
          </mxGeometry>
        </mxCell>
        <mxCell id="btj04kFpX4r5q9AqIZzk-31" value="" style="endArrow=none;html=1;rounded=0;exitX=0;exitY=0.5;exitDx=0;exitDy=0;entryX=1;entryY=0.25;entryDx=0;entryDy=0;" parent="1" source="btj04kFpX4r5q9AqIZzk-25" target="btj04kFpX4r5q9AqIZzk-21" edge="1">
          <mxGeometry relative="1" as="geometry">
            <mxPoint x="-31520" y="-15910" as="sourcePoint" />
            <mxPoint x="-31510" y="-15890" as="targetPoint" />
          </mxGeometry>
        </mxCell>
        <mxCell id="btj04kFpX4r5q9AqIZzk-32" value="D" style="ellipse;whiteSpace=wrap;html=1;aspect=fixed;" parent="1" vertex="1">
          <mxGeometry x="-31775" y="-15710" width="30" height="30" as="geometry" />
        </mxCell>
        <mxCell id="btj04kFpX4r5q9AqIZzk-33" value="" style="endArrow=none;html=1;rounded=0;exitX=0.5;exitY=1;exitDx=0;exitDy=0;entryX=0.5;entryY=0;entryDx=0;entryDy=0;" parent="1" source="btj04kFpX4r5q9AqIZzk-21" target="btj04kFpX4r5q9AqIZzk-32" edge="1">
          <mxGeometry width="50" height="50" relative="1" as="geometry">
            <mxPoint x="-31510" y="-15770" as="sourcePoint" />
            <mxPoint x="-31460" y="-15820" as="targetPoint" />
          </mxGeometry>
        </mxCell>
        <mxCell id="btj04kFpX4r5q9AqIZzk-34" value="Patient" style="whiteSpace=wrap;html=1;align=center;" parent="1" vertex="1">
          <mxGeometry x="-31560" y="-15580" width="100" height="40" as="geometry" />
        </mxCell>
        <mxCell id="btj04kFpX4r5q9AqIZzk-35" value="Admin" style="whiteSpace=wrap;html=1;align=center;" parent="1" vertex="1">
          <mxGeometry x="-31810" y="-15580" width="100" height="40" as="geometry" />
        </mxCell>
        <mxCell id="btj04kFpX4r5q9AqIZzk-36" value="Doctor" style="whiteSpace=wrap;html=1;align=center;" parent="1" vertex="1">
          <mxGeometry x="-32060" y="-15580" width="100" height="40" as="geometry" />
        </mxCell>
        <mxCell id="btj04kFpX4r5q9AqIZzk-37" value="" style="endArrow=none;html=1;rounded=0;exitX=0.5;exitY=1;exitDx=0;exitDy=0;entryX=0.5;entryY=0;entryDx=0;entryDy=0;" parent="1" source="btj04kFpX4r5q9AqIZzk-32" target="btj04kFpX4r5q9AqIZzk-35" edge="1">
          <mxGeometry relative="1" as="geometry">
            <mxPoint x="-31820" y="-15580" as="sourcePoint" />
            <mxPoint x="-31660" y="-15580" as="targetPoint" />
          </mxGeometry>
        </mxCell>
        <mxCell id="btj04kFpX4r5q9AqIZzk-39" value="" style="endArrow=none;html=1;rounded=0;exitX=0;exitY=1;exitDx=0;exitDy=0;entryX=1;entryY=0;entryDx=0;entryDy=0;" parent="1" source="btj04kFpX4r5q9AqIZzk-32" target="btj04kFpX4r5q9AqIZzk-36" edge="1">
          <mxGeometry relative="1" as="geometry">
            <mxPoint x="-31760" y="-15630" as="sourcePoint" />
            <mxPoint x="-31760" y="-15530" as="targetPoint" />
          </mxGeometry>
        </mxCell>
        <mxCell id="btj04kFpX4r5q9AqIZzk-41" value="" style="endArrow=none;html=1;rounded=0;exitX=1;exitY=1;exitDx=0;exitDy=0;entryX=0;entryY=0;entryDx=0;entryDy=0;" parent="1" source="btj04kFpX4r5q9AqIZzk-32" target="btj04kFpX4r5q9AqIZzk-34" edge="1">
          <mxGeometry relative="1" as="geometry">
            <mxPoint x="-31630" y="-15690" as="sourcePoint" />
            <mxPoint x="-31630" y="-15590" as="targetPoint" />
          </mxGeometry>
        </mxCell>
        <mxCell id="btj04kFpX4r5q9AqIZzk-42" value="Specialization" style="ellipse;whiteSpace=wrap;html=1;align=center;" parent="1" vertex="1">
          <mxGeometry x="-32190" y="-15610" width="100" height="40" as="geometry" />
        </mxCell>
        <mxCell id="btj04kFpX4r5q9AqIZzk-45" value="Working&amp;nbsp;&lt;div&gt;Hours&lt;/div&gt;" style="ellipse;whiteSpace=wrap;html=1;align=center;" parent="1" vertex="1">
          <mxGeometry x="-32200" y="-15540" width="60" height="40" as="geometry" />
        </mxCell>
        <mxCell id="btj04kFpX4r5q9AqIZzk-46" value="" style="endArrow=none;html=1;rounded=0;exitX=1;exitY=0.5;exitDx=0;exitDy=0;entryX=0;entryY=0.75;entryDx=0;entryDy=0;" parent="1" source="btj04kFpX4r5q9AqIZzk-42" target="btj04kFpX4r5q9AqIZzk-36" edge="1">
          <mxGeometry relative="1" as="geometry">
            <mxPoint x="-32050" y="-15590" as="sourcePoint" />
            <mxPoint x="-31890" y="-15590" as="targetPoint" />
          </mxGeometry>
        </mxCell>
        <mxCell id="btj04kFpX4r5q9AqIZzk-47" value="" style="endArrow=none;html=1;rounded=0;exitX=1;exitY=0.5;exitDx=0;exitDy=0;entryX=0;entryY=1;entryDx=0;entryDy=0;" parent="1" source="btj04kFpX4r5q9AqIZzk-45" target="btj04kFpX4r5q9AqIZzk-36" edge="1">
          <mxGeometry relative="1" as="geometry">
            <mxPoint x="-32070" y="-15620" as="sourcePoint" />
            <mxPoint x="-32030" y="-15580" as="targetPoint" />
          </mxGeometry>
        </mxCell>
        <mxCell id="btj04kFpX4r5q9AqIZzk-50" value="username" style="ellipse;whiteSpace=wrap;html=1;align=center;fontStyle=4;" parent="1" vertex="1">
          <mxGeometry x="-31904" y="-15610" width="70" height="40" as="geometry" />
        </mxCell>
        <mxCell id="btj04kFpX4r5q9AqIZzk-51" value="password" style="ellipse;whiteSpace=wrap;html=1;align=center;" parent="1" vertex="1">
          <mxGeometry x="-31904" y="-15540" width="65" height="40" as="geometry" />
        </mxCell>
        <mxCell id="btj04kFpX4r5q9AqIZzk-52" value="" style="endArrow=none;html=1;rounded=0;exitX=0;exitY=0;exitDx=0;exitDy=0;entryX=1;entryY=0.5;entryDx=0;entryDy=0;" parent="1" source="btj04kFpX4r5q9AqIZzk-35" target="btj04kFpX4r5q9AqIZzk-50" edge="1">
          <mxGeometry relative="1" as="geometry">
            <mxPoint x="-31661" y="-15650" as="sourcePoint" />
            <mxPoint x="-31850" y="-15546" as="targetPoint" />
          </mxGeometry>
        </mxCell>
        <mxCell id="btj04kFpX4r5q9AqIZzk-53" value="" style="endArrow=none;html=1;rounded=0;exitX=0;exitY=0.75;exitDx=0;exitDy=0;entryX=1;entryY=0.5;entryDx=0;entryDy=0;" parent="1" source="btj04kFpX4r5q9AqIZzk-35" target="btj04kFpX4r5q9AqIZzk-51" edge="1">
          <mxGeometry relative="1" as="geometry">
            <mxPoint x="-31511" y="-15510" as="sourcePoint" />
            <mxPoint x="-31700" y="-15406" as="targetPoint" />
          </mxGeometry>
        </mxCell>
        <mxCell id="btj04kFpX4r5q9AqIZzk-54" value="Blood&lt;div&gt;Group&lt;/div&gt;" style="ellipse;whiteSpace=wrap;html=1;align=center;" parent="1" vertex="1">
          <mxGeometry x="-31629" y="-15690" width="65" height="40" as="geometry" />
        </mxCell>
        <mxCell id="btj04kFpX4r5q9AqIZzk-56" value="" style="endArrow=none;html=1;rounded=0;exitX=0.5;exitY=1;exitDx=0;exitDy=0;entryX=0.5;entryY=0;entryDx=0;entryDy=0;" parent="1" source="btj04kFpX4r5q9AqIZzk-54" target="btj04kFpX4r5q9AqIZzk-34" edge="1">
          <mxGeometry relative="1" as="geometry">
            <mxPoint x="-31660" y="-15640" as="sourcePoint" />
            <mxPoint x="-31471" y="-15536" as="targetPoint" />
          </mxGeometry>
        </mxCell>
        <mxCell id="btj04kFpX4r5q9AqIZzk-58" value="Has a" style="shape=rhombus;perimeter=rhombusPerimeter;whiteSpace=wrap;html=1;align=center;" parent="1" vertex="1">
          <mxGeometry x="-31380" y="-15590" width="120" height="60" as="geometry" />
        </mxCell>
        <mxCell id="btj04kFpX4r5q9AqIZzk-59" value="" style="endArrow=none;html=1;rounded=0;exitX=0;exitY=0.5;exitDx=0;exitDy=0;entryX=1;entryY=0.5;entryDx=0;entryDy=0;" parent="1" source="btj04kFpX4r5q9AqIZzk-58" target="btj04kFpX4r5q9AqIZzk-34" edge="1">
          <mxGeometry relative="1" as="geometry">
            <mxPoint x="-31450" y="-15630" as="sourcePoint" />
            <mxPoint x="-31290" y="-15630" as="targetPoint" />
          </mxGeometry>
        </mxCell>
        <mxCell id="btj04kFpX4r5q9AqIZzk-60" value="1" style="resizable=0;html=1;whiteSpace=wrap;align=right;verticalAlign=bottom;" parent="btj04kFpX4r5q9AqIZzk-59" connectable="0" vertex="1">
          <mxGeometry x="1" relative="1" as="geometry">
            <mxPoint x="10" as="offset" />
          </mxGeometry>
        </mxCell>
        <mxCell id="btj04kFpX4r5q9AqIZzk-61" value="" style="endArrow=none;html=1;rounded=0;entryX=0;entryY=0.5;entryDx=0;entryDy=0;exitX=1;exitY=0.5;exitDx=0;exitDy=0;" parent="1" source="btj04kFpX4r5q9AqIZzk-58" edge="1">
          <mxGeometry relative="1" as="geometry">
            <mxPoint x="-31260" y="-15560" as="sourcePoint" />
            <mxPoint x="-31180" y="-15560" as="targetPoint" />
          </mxGeometry>
        </mxCell>
        <mxCell id="btj04kFpX4r5q9AqIZzk-62" value="1" style="resizable=0;html=1;whiteSpace=wrap;align=right;verticalAlign=bottom;" parent="btj04kFpX4r5q9AqIZzk-61" connectable="0" vertex="1">
          <mxGeometry x="1" relative="1" as="geometry">
            <mxPoint x="-10" as="offset" />
          </mxGeometry>
        </mxCell>
        <mxCell id="btj04kFpX4r5q9AqIZzk-63" value="&lt;span style=&quot;border-bottom: 1px dotted&quot;&gt;Pateint ID&lt;/span&gt;" style="ellipse;whiteSpace=wrap;html=1;align=center;" parent="1" vertex="1">
          <mxGeometry x="-31210" y="-15680" width="80" height="40" as="geometry" />
        </mxCell>
        <mxCell id="btj04kFpX4r5q9AqIZzk-65" value="" style="endArrow=none;html=1;rounded=0;exitX=0.5;exitY=1;exitDx=0;exitDy=0;entryX=0.25;entryY=0;entryDx=0;entryDy=0;" parent="1" source="btj04kFpX4r5q9AqIZzk-63" edge="1">
          <mxGeometry relative="1" as="geometry">
            <mxPoint x="-31020" y="-15640" as="sourcePoint" />
            <mxPoint x="-31155" y="-15580" as="targetPoint" />
          </mxGeometry>
        </mxCell>
        <mxCell id="btj04kFpX4r5q9AqIZzk-67" value="Medication" style="shape=ext;margin=3;double=1;whiteSpace=wrap;html=1;align=center;" parent="1" vertex="1">
          <mxGeometry x="-30940" y="-15790" width="100" height="40" as="geometry" />
        </mxCell>
        <mxCell id="btj04kFpX4r5q9AqIZzk-69" value="Contains" style="shape=rhombus;double=1;perimeter=rhombusPerimeter;whiteSpace=wrap;html=1;align=center;" parent="1" vertex="1">
          <mxGeometry x="-30940" y="-15680" width="100" height="60" as="geometry" />
        </mxCell>
        <mxCell id="btj04kFpX4r5q9AqIZzk-70" value="" style="endArrow=none;html=1;rounded=0;exitX=0.5;exitY=1;exitDx=0;exitDy=0;entryX=1;entryY=0.5;entryDx=0;entryDy=0;" parent="1" source="btj04kFpX4r5q9AqIZzk-69" edge="1">
          <mxGeometry relative="1" as="geometry">
            <mxPoint x="-30920" y="-15590" as="sourcePoint" />
            <mxPoint x="-31080" y="-15560" as="targetPoint" />
            <Array as="points">
              <mxPoint x="-30890" y="-15560" />
            </Array>
          </mxGeometry>
        </mxCell>
        <mxCell id="btj04kFpX4r5q9AqIZzk-71" value="1" style="resizable=0;html=1;whiteSpace=wrap;align=right;verticalAlign=bottom;" parent="btj04kFpX4r5q9AqIZzk-70" connectable="0" vertex="1">
          <mxGeometry x="1" relative="1" as="geometry">
            <mxPoint x="20" as="offset" />
          </mxGeometry>
        </mxCell>
        <mxCell id="btj04kFpX4r5q9AqIZzk-74" value="" style="endArrow=none;html=1;rounded=0;exitX=0.5;exitY=0;exitDx=0;exitDy=0;entryX=0.5;entryY=1;entryDx=0;entryDy=0;" parent="1" source="btj04kFpX4r5q9AqIZzk-69" target="btj04kFpX4r5q9AqIZzk-67" edge="1">
          <mxGeometry relative="1" as="geometry">
            <mxPoint x="-30760" y="-15660" as="sourcePoint" />
            <mxPoint x="-30600" y="-15660" as="targetPoint" />
          </mxGeometry>
        </mxCell>
        <mxCell id="btj04kFpX4r5q9AqIZzk-75" value="N" style="resizable=0;html=1;whiteSpace=wrap;align=right;verticalAlign=bottom;" parent="btj04kFpX4r5q9AqIZzk-74" connectable="0" vertex="1">
          <mxGeometry x="1" relative="1" as="geometry">
            <mxPoint x="-10" y="20" as="offset" />
          </mxGeometry>
        </mxCell>
        <mxCell id="btj04kFpX4r5q9AqIZzk-77" value="medicine&amp;nbsp;&lt;div&gt;ID&lt;/div&gt;" style="ellipse;whiteSpace=wrap;html=1;align=center;fontStyle=4;" parent="1" vertex="1">
          <mxGeometry x="-31020" y="-15910" width="80" height="40" as="geometry" />
        </mxCell>
        <mxCell id="btj04kFpX4r5q9AqIZzk-78" value="Medical&amp;nbsp;&lt;div&gt;History&lt;/div&gt;" style="whiteSpace=wrap;html=1;align=center;" parent="1" vertex="1">
          <mxGeometry x="-31180" y="-15580" width="100" height="40" as="geometry" />
        </mxCell>
        <mxCell id="btj04kFpX4r5q9AqIZzk-79" value="ID" style="ellipse;whiteSpace=wrap;html=1;align=center;fontStyle=4;" parent="1" vertex="1">
          <mxGeometry x="-31110" y="-15680" width="40" height="40" as="geometry" />
        </mxCell>
        <mxCell id="btj04kFpX4r5q9AqIZzk-80" value="" style="endArrow=none;html=1;rounded=0;exitX=0.5;exitY=1;exitDx=0;exitDy=0;entryX=0.5;entryY=0;entryDx=0;entryDy=0;" parent="1" source="btj04kFpX4r5q9AqIZzk-79" target="btj04kFpX4r5q9AqIZzk-78" edge="1">
          <mxGeometry relative="1" as="geometry">
            <mxPoint x="-31080" y="-15670" as="sourcePoint" />
            <mxPoint x="-30920" y="-15670" as="targetPoint" />
          </mxGeometry>
        </mxCell>
        <mxCell id="btj04kFpX4r5q9AqIZzk-83" value="medicl history ID" style="ellipse;whiteSpace=wrap;html=1;align=center;fontStyle=4;" parent="1" vertex="1">
          <mxGeometry x="-31062" y="-15850" width="100" height="50" as="geometry" />
        </mxCell>
        <mxCell id="btj04kFpX4r5q9AqIZzk-85" value="Dosage" style="ellipse;whiteSpace=wrap;html=1;align=center;" parent="1" vertex="1">
          <mxGeometry x="-30920" y="-15940" width="60" height="40" as="geometry" />
        </mxCell>
        <mxCell id="btj04kFpX4r5q9AqIZzk-86" value="Ending&lt;div&gt;Date&lt;/div&gt;" style="ellipse;whiteSpace=wrap;html=1;align=center;" parent="1" vertex="1">
          <mxGeometry x="-30810" y="-15850" width="100" height="40" as="geometry" />
        </mxCell>
        <mxCell id="btj04kFpX4r5q9AqIZzk-87" value="Starting&amp;nbsp;&lt;div&gt;Date&lt;/div&gt;" style="ellipse;whiteSpace=wrap;html=1;align=center;" parent="1" vertex="1">
          <mxGeometry x="-30850" y="-15910" width="100" height="40" as="geometry" />
        </mxCell>
        <mxCell id="btj04kFpX4r5q9AqIZzk-88" value="" style="endArrow=none;html=1;rounded=0;exitX=0.5;exitY=1;exitDx=0;exitDy=0;entryX=0;entryY=0.5;entryDx=0;entryDy=0;" parent="1" source="btj04kFpX4r5q9AqIZzk-83" target="btj04kFpX4r5q9AqIZzk-67" edge="1">
          <mxGeometry relative="1" as="geometry">
            <mxPoint x="-30990" y="-15760" as="sourcePoint" />
            <mxPoint x="-30830" y="-15760" as="targetPoint" />
          </mxGeometry>
        </mxCell>
        <mxCell id="btj04kFpX4r5q9AqIZzk-89" value="" style="endArrow=none;html=1;rounded=0;exitX=0.5;exitY=1;exitDx=0;exitDy=0;entryX=0.25;entryY=0;entryDx=0;entryDy=0;" parent="1" source="btj04kFpX4r5q9AqIZzk-77" target="btj04kFpX4r5q9AqIZzk-67" edge="1">
          <mxGeometry relative="1" as="geometry">
            <mxPoint x="-30860" y="-15860" as="sourcePoint" />
            <mxPoint x="-30788" y="-15830" as="targetPoint" />
          </mxGeometry>
        </mxCell>
        <mxCell id="btj04kFpX4r5q9AqIZzk-90" value="" style="endArrow=none;html=1;rounded=0;exitX=0.5;exitY=1;exitDx=0;exitDy=0;entryX=0.5;entryY=0;entryDx=0;entryDy=0;" parent="1" source="btj04kFpX4r5q9AqIZzk-85" target="btj04kFpX4r5q9AqIZzk-67" edge="1">
          <mxGeometry relative="1" as="geometry">
            <mxPoint x="-30900" y="-15870" as="sourcePoint" />
            <mxPoint x="-30835" y="-15790" as="targetPoint" />
          </mxGeometry>
        </mxCell>
        <mxCell id="btj04kFpX4r5q9AqIZzk-91" value="" style="endArrow=none;html=1;rounded=0;exitX=0;exitY=1;exitDx=0;exitDy=0;entryX=0.75;entryY=0;entryDx=0;entryDy=0;" parent="1" source="btj04kFpX4r5q9AqIZzk-87" target="btj04kFpX4r5q9AqIZzk-67" edge="1">
          <mxGeometry relative="1" as="geometry">
            <mxPoint x="-30770" y="-15820" as="sourcePoint" />
            <mxPoint x="-30770" y="-15710" as="targetPoint" />
          </mxGeometry>
        </mxCell>
        <mxCell id="btj04kFpX4r5q9AqIZzk-92" value="" style="endArrow=none;html=1;rounded=0;exitX=0;exitY=1;exitDx=0;exitDy=0;entryX=1;entryY=0;entryDx=0;entryDy=0;" parent="1" source="btj04kFpX4r5q9AqIZzk-86" target="btj04kFpX4r5q9AqIZzk-67" edge="1">
          <mxGeometry relative="1" as="geometry">
            <mxPoint x="-30690" y="-15730" as="sourcePoint" />
            <mxPoint x="-30720" y="-15644" as="targetPoint" />
          </mxGeometry>
        </mxCell>
        <mxCell id="btj04kFpX4r5q9AqIZzk-93" value="Medicine" style="whiteSpace=wrap;html=1;align=center;" parent="1" vertex="1">
          <mxGeometry x="-30560" y="-15790" width="100" height="40" as="geometry" />
        </mxCell>
        <mxCell id="btj04kFpX4r5q9AqIZzk-94" value="Refers&amp;nbsp;&lt;div&gt;to&lt;/div&gt;" style="shape=rhombus;perimeter=rhombusPerimeter;whiteSpace=wrap;html=1;align=center;" parent="1" vertex="1">
          <mxGeometry x="-30760" y="-15800" width="120" height="60" as="geometry" />
        </mxCell>
        <mxCell id="btj04kFpX4r5q9AqIZzk-95" value="&lt;span style=&quot;border-bottom: 1px dotted&quot;&gt;Prescribing Doctor ID&lt;/span&gt;" style="ellipse;whiteSpace=wrap;html=1;align=center;" parent="1" vertex="1">
          <mxGeometry x="-31110" y="-15781" width="100" height="40" as="geometry" />
        </mxCell>
        <mxCell id="btj04kFpX4r5q9AqIZzk-96" value="" style="endArrow=none;html=1;rounded=0;exitX=1;exitY=0.5;exitDx=0;exitDy=0;entryX=0;entryY=0.75;entryDx=0;entryDy=0;" parent="1" source="btj04kFpX4r5q9AqIZzk-95" target="btj04kFpX4r5q9AqIZzk-67" edge="1">
          <mxGeometry relative="1" as="geometry">
            <mxPoint x="-31010" y="-15740" as="sourcePoint" />
            <mxPoint x="-30850" y="-15740" as="targetPoint" />
          </mxGeometry>
        </mxCell>
        <mxCell id="btj04kFpX4r5q9AqIZzk-97" value="" style="endArrow=none;html=1;rounded=0;entryX=1;entryY=0.5;entryDx=0;entryDy=0;" parent="1" target="btj04kFpX4r5q9AqIZzk-67" edge="1">
          <mxGeometry relative="1" as="geometry">
            <mxPoint x="-30760" y="-15770" as="sourcePoint" />
            <mxPoint x="-30820" y="-15770" as="targetPoint" />
          </mxGeometry>
        </mxCell>
        <mxCell id="btj04kFpX4r5q9AqIZzk-98" value="1" style="resizable=0;html=1;whiteSpace=wrap;align=right;verticalAlign=bottom;" parent="btj04kFpX4r5q9AqIZzk-97" connectable="0" vertex="1">
          <mxGeometry x="1" relative="1" as="geometry">
            <mxPoint x="10" as="offset" />
          </mxGeometry>
        </mxCell>
        <mxCell id="btj04kFpX4r5q9AqIZzk-99" value="" style="endArrow=none;html=1;rounded=0;exitX=0;exitY=0.5;exitDx=0;exitDy=0;entryX=1;entryY=0.5;entryDx=0;entryDy=0;" parent="1" source="btj04kFpX4r5q9AqIZzk-93" target="btj04kFpX4r5q9AqIZzk-94" edge="1">
          <mxGeometry relative="1" as="geometry">
            <mxPoint x="-30720" y="-15670" as="sourcePoint" />
            <mxPoint x="-30560" y="-15670" as="targetPoint" />
          </mxGeometry>
        </mxCell>
        <mxCell id="btj04kFpX4r5q9AqIZzk-100" value="1" style="resizable=0;html=1;whiteSpace=wrap;align=right;verticalAlign=bottom;" parent="btj04kFpX4r5q9AqIZzk-99" connectable="0" vertex="1">
          <mxGeometry x="1" relative="1" as="geometry">
            <mxPoint x="70" as="offset" />
          </mxGeometry>
        </mxCell>
        <mxCell id="btj04kFpX4r5q9AqIZzk-101" value="ID" style="ellipse;whiteSpace=wrap;html=1;align=center;fontStyle=4;" parent="1" vertex="1">
          <mxGeometry x="-30639" y="-15854.67" width="40" height="40" as="geometry" />
        </mxCell>
        <mxCell id="btj04kFpX4r5q9AqIZzk-102" value="Name" style="ellipse;whiteSpace=wrap;html=1;align=center;" parent="1" vertex="1">
          <mxGeometry x="-30620" y="-15900" width="60" height="40" as="geometry" />
        </mxCell>
        <mxCell id="btj04kFpX4r5q9AqIZzk-103" value="Strength&lt;span style=&quot;color: rgba(0, 0, 0, 0); font-family: monospace; font-size: 0px; text-align: start; text-wrap-mode: nowrap;&quot;&gt;%3CmxGraphModel%3E%3Croot%3E%3CmxCell%20id%3D%220%22%2F%3E%3CmxCell%20id%3D%221%22%20parent%3D%220%22%2F%3E%3CmxCell%20id%3D%222%22%20value%3D%22Name%22%20style%3D%22ellipse%3BwhiteSpace%3Dwrap%3Bhtml%3D1%3Balign%3Dcenter%3B%22%20vertex%3D%221%22%20parent%3D%221%22%3E%3CmxGeometry%20x%3D%22-30480%22%20y%3D%22-15800%22%20width%3D%2260%22%20height%3D%2240%22%20as%3D%22geometry%22%2F%3E%3C%2FmxCell%3E%3C%2Froot%3E%3C%2FmxGraphModel%3E&lt;/span&gt;" style="ellipse;whiteSpace=wrap;html=1;align=center;" parent="1" vertex="1">
          <mxGeometry x="-30440" y="-15890" width="60" height="40" as="geometry" />
        </mxCell>
        <mxCell id="btj04kFpX4r5q9AqIZzk-104" value="Manufacturer" style="ellipse;whiteSpace=wrap;html=1;align=center;" parent="1" vertex="1">
          <mxGeometry x="-30440" y="-15830" width="100" height="40" as="geometry" />
        </mxCell>
        <mxCell id="btj04kFpX4r5q9AqIZzk-105" value="Manufacturing&lt;div&gt;&amp;nbsp;Date&lt;/div&gt;" style="ellipse;whiteSpace=wrap;html=1;align=center;" parent="1" vertex="1">
          <mxGeometry x="-30490" y="-15715" width="130" height="40" as="geometry" />
        </mxCell>
        <mxCell id="btj04kFpX4r5q9AqIZzk-106" value="Expiry&amp;nbsp;&lt;div&gt;Date&lt;/div&gt;" style="ellipse;whiteSpace=wrap;html=1;align=center;" parent="1" vertex="1">
          <mxGeometry x="-30410" y="-15770" width="60" height="40" as="geometry" />
        </mxCell>
        <mxCell id="btj04kFpX4r5q9AqIZzk-107" value="" style="endArrow=none;html=1;rounded=0;exitX=0.5;exitY=1;exitDx=0;exitDy=0;entryX=0.25;entryY=0;entryDx=0;entryDy=0;" parent="1" source="btj04kFpX4r5q9AqIZzk-101" target="btj04kFpX4r5q9AqIZzk-93" edge="1">
          <mxGeometry relative="1" as="geometry">
            <mxPoint x="-30440" y="-15760" as="sourcePoint" />
            <mxPoint x="-30280" y="-15760" as="targetPoint" />
          </mxGeometry>
        </mxCell>
        <mxCell id="btj04kFpX4r5q9AqIZzk-108" value="" style="endArrow=none;html=1;rounded=0;exitX=0.5;exitY=1;exitDx=0;exitDy=0;entryX=0.5;entryY=0;entryDx=0;entryDy=0;" parent="1" source="btj04kFpX4r5q9AqIZzk-102" target="btj04kFpX4r5q9AqIZzk-93" edge="1">
          <mxGeometry relative="1" as="geometry">
            <mxPoint x="-30250" y="-15930" as="sourcePoint" />
            <mxPoint x="-30090" y="-15930" as="targetPoint" />
          </mxGeometry>
        </mxCell>
        <mxCell id="btj04kFpX4r5q9AqIZzk-109" value="" style="endArrow=none;html=1;rounded=0;exitX=0;exitY=1;exitDx=0;exitDy=0;entryX=0.75;entryY=0;entryDx=0;entryDy=0;" parent="1" source="btj04kFpX4r5q9AqIZzk-103" target="btj04kFpX4r5q9AqIZzk-93" edge="1">
          <mxGeometry relative="1" as="geometry">
            <mxPoint x="-30170" y="-15940" as="sourcePoint" />
            <mxPoint x="-30180" y="-15870" as="targetPoint" />
          </mxGeometry>
        </mxCell>
        <mxCell id="btj04kFpX4r5q9AqIZzk-110" value="" style="endArrow=none;html=1;rounded=0;exitX=0;exitY=0.5;exitDx=0;exitDy=0;entryX=1;entryY=0;entryDx=0;entryDy=0;" parent="1" source="btj04kFpX4r5q9AqIZzk-104" target="btj04kFpX4r5q9AqIZzk-93" edge="1">
          <mxGeometry relative="1" as="geometry">
            <mxPoint x="-30480" y="-15800" as="sourcePoint" />
            <mxPoint x="-30490" y="-15730" as="targetPoint" />
          </mxGeometry>
        </mxCell>
        <mxCell id="btj04kFpX4r5q9AqIZzk-111" value="" style="endArrow=none;html=1;rounded=0;exitX=0;exitY=0.5;exitDx=0;exitDy=0;entryX=1;entryY=0.5;entryDx=0;entryDy=0;" parent="1" source="btj04kFpX4r5q9AqIZzk-106" target="btj04kFpX4r5q9AqIZzk-93" edge="1">
          <mxGeometry relative="1" as="geometry">
            <mxPoint x="-30190" y="-15970" as="sourcePoint" />
            <mxPoint x="-30210" y="-15950" as="targetPoint" />
          </mxGeometry>
        </mxCell>
        <mxCell id="btj04kFpX4r5q9AqIZzk-112" value="" style="endArrow=none;html=1;rounded=0;exitX=0.282;exitY=0.05;exitDx=0;exitDy=0;entryX=0.75;entryY=1;entryDx=0;entryDy=0;exitPerimeter=0;" parent="1" source="btj04kFpX4r5q9AqIZzk-105" target="btj04kFpX4r5q9AqIZzk-93" edge="1">
          <mxGeometry relative="1" as="geometry">
            <mxPoint x="-30200" y="-15770" as="sourcePoint" />
            <mxPoint x="-30250" y="-15790" as="targetPoint" />
          </mxGeometry>
        </mxCell>
        <mxCell id="btj04kFpX4r5q9AqIZzk-113" value="" style="endArrow=none;html=1;rounded=0;exitX=0.5;exitY=0;exitDx=0;exitDy=0;entryX=0.25;entryY=1;entryDx=0;entryDy=0;" parent="1" source="btj04kFpX4r5q9AqIZzk-115" target="btj04kFpX4r5q9AqIZzk-93" edge="1">
          <mxGeometry relative="1" as="geometry">
            <mxPoint x="-30160" y="-15640" as="sourcePoint" />
            <mxPoint x="-30210" y="-15660" as="targetPoint" />
          </mxGeometry>
        </mxCell>
        <mxCell id="btj04kFpX4r5q9AqIZzk-115" value="Quantity" style="ellipse;whiteSpace=wrap;html=1;align=center;" parent="1" vertex="1">
          <mxGeometry x="-30580" y="-15710" width="80" height="40" as="geometry" />
        </mxCell>
        <mxCell id="btj04kFpX4r5q9AqIZzk-116" value="" style="endArrow=none;html=1;rounded=0;entryX=0.75;entryY=1;entryDx=0;entryDy=0;exitX=0.5;exitY=0;exitDx=0;exitDy=0;" parent="1" source="btj04kFpX4r5q9AqIZzk-122" target="btj04kFpX4r5q9AqIZzk-78" edge="1">
          <mxGeometry relative="1" as="geometry">
            <mxPoint x="-30950" y="-15480" as="sourcePoint" />
            <mxPoint x="-31090" y="-15510" as="targetPoint" />
            <Array as="points">
              <mxPoint x="-31105" y="-15480" />
            </Array>
          </mxGeometry>
        </mxCell>
        <mxCell id="btj04kFpX4r5q9AqIZzk-117" value="1" style="resizable=0;html=1;whiteSpace=wrap;align=right;verticalAlign=bottom;" parent="btj04kFpX4r5q9AqIZzk-116" connectable="0" vertex="1">
          <mxGeometry x="1" relative="1" as="geometry">
            <mxPoint x="15" y="20" as="offset" />
          </mxGeometry>
        </mxCell>
        <mxCell id="btj04kFpX4r5q9AqIZzk-119" value="" style="endArrow=none;html=1;rounded=0;exitX=0.5;exitY=1;exitDx=0;exitDy=0;" parent="1" source="btj04kFpX4r5q9AqIZzk-122" target="btj04kFpX4r5q9AqIZzk-121" edge="1">
          <mxGeometry relative="1" as="geometry">
            <mxPoint x="-31010" y="-15440" as="sourcePoint" />
            <mxPoint x="-30850" y="-15440" as="targetPoint" />
          </mxGeometry>
        </mxCell>
        <mxCell id="btj04kFpX4r5q9AqIZzk-120" value="N" style="resizable=0;html=1;whiteSpace=wrap;align=right;verticalAlign=bottom;" parent="btj04kFpX4r5q9AqIZzk-119" connectable="0" vertex="1">
          <mxGeometry x="1" relative="1" as="geometry" />
        </mxCell>
        <mxCell id="btj04kFpX4r5q9AqIZzk-121" value="Allergy&lt;div&gt;Diagnosis&lt;/div&gt;" style="shape=ext;margin=3;double=1;whiteSpace=wrap;html=1;align=center;" parent="1" vertex="1">
          <mxGeometry x="-30940" y="-15280" width="100" height="40" as="geometry" />
        </mxCell>
        <mxCell id="btj04kFpX4r5q9AqIZzk-122" value="Contains" style="shape=rhombus;double=1;perimeter=rhombusPerimeter;whiteSpace=wrap;html=1;align=center;" parent="1" vertex="1">
          <mxGeometry x="-30940" y="-15480" width="100" height="60" as="geometry" />
        </mxCell>
        <mxCell id="btj04kFpX4r5q9AqIZzk-124" value="medicl history ID" style="ellipse;whiteSpace=wrap;html=1;align=center;fontStyle=4;" parent="1" vertex="1">
          <mxGeometry x="-31030" y="-15350" width="100" height="50" as="geometry" />
        </mxCell>
        <mxCell id="btj04kFpX4r5q9AqIZzk-125" value="&lt;span style=&quot;border-bottom: 1px dotted&quot;&gt;Allergy&amp;nbsp;&lt;/span&gt;&lt;div&gt;&lt;span style=&quot;border-bottom: 1px dotted&quot;&gt;ID&lt;/span&gt;&lt;/div&gt;" style="ellipse;whiteSpace=wrap;html=1;align=center;" parent="1" vertex="1">
          <mxGeometry x="-31062" y="-15290" width="100" height="40" as="geometry" />
        </mxCell>
        <mxCell id="btj04kFpX4r5q9AqIZzk-126" value="Diagnosis&lt;div&gt;Date&lt;span style=&quot;color: rgba(0, 0, 0, 0); font-family: monospace; font-size: 0px; text-align: start; text-wrap-mode: nowrap; background-color: transparent;&quot;&gt;%3CmxGraphModel%3E%3Croot%3E%3CmxCell%20id%3D%220%22%2F%3E%3CmxCell%20id%3D%221%22%20parent%3D%220%22%2F%3E%3CmxCell%20id%3D%222%22%20value%3D%22medicl%20history%20ID%22%20style%3D%22ellipse%3BwhiteSpace%3Dwrap%3Bhtml%3D1%3Balign%3Dcenter%3BfontStyle%3D4%3B%22%20vertex%3D%221%22%20parent%3D%221%22%3E%3CmxGeometry%20x%3D%22-31062%22%20y%3D%22-15850%22%20width%3D%22100%22%20height%3D%2250%22%20as%3D%22geometry%22%2F%3E%3C%2FmxCell%3E%3C%2Froot%3E%3C%2FmxGraphModel%3E&lt;/span&gt;&lt;/div&gt;" style="ellipse;whiteSpace=wrap;html=1;align=center;" parent="1" vertex="1">
          <mxGeometry x="-30870" y="-15170" width="100" height="40" as="geometry" />
        </mxCell>
        <mxCell id="btj04kFpX4r5q9AqIZzk-128" value="Severity" style="ellipse;whiteSpace=wrap;html=1;align=center;" parent="1" vertex="1">
          <mxGeometry x="-31080" y="-15230" width="100" height="40" as="geometry" />
        </mxCell>
        <mxCell id="btj04kFpX4r5q9AqIZzk-129" value="&lt;span style=&quot;border-bottom: 1px dotted&quot;&gt;Diagnosing&amp;nbsp;&lt;/span&gt;&lt;div&gt;&lt;span style=&quot;border-bottom: 1px dotted&quot;&gt;Doctor&lt;/span&gt;&lt;/div&gt;" style="ellipse;whiteSpace=wrap;html=1;align=center;" parent="1" vertex="1">
          <mxGeometry x="-30990" y="-15170" width="100" height="40" as="geometry" />
        </mxCell>
        <mxCell id="btj04kFpX4r5q9AqIZzk-130" value="" style="endArrow=none;html=1;rounded=0;exitX=1;exitY=1;exitDx=0;exitDy=0;entryX=0.25;entryY=0;entryDx=0;entryDy=0;" parent="1" source="btj04kFpX4r5q9AqIZzk-124" target="btj04kFpX4r5q9AqIZzk-121" edge="1">
          <mxGeometry relative="1" as="geometry">
            <mxPoint x="-30960" y="-15190" as="sourcePoint" />
            <mxPoint x="-30800" y="-15190" as="targetPoint" />
          </mxGeometry>
        </mxCell>
        <mxCell id="btj04kFpX4r5q9AqIZzk-131" value="" style="endArrow=none;html=1;rounded=0;exitX=1;exitY=0.5;exitDx=0;exitDy=0;entryX=0;entryY=0.25;entryDx=0;entryDy=0;" parent="1" source="btj04kFpX4r5q9AqIZzk-125" target="btj04kFpX4r5q9AqIZzk-121" edge="1">
          <mxGeometry relative="1" as="geometry">
            <mxPoint x="-30920" y="-15290" as="sourcePoint" />
            <mxPoint x="-30891" y="-15263" as="targetPoint" />
          </mxGeometry>
        </mxCell>
        <mxCell id="btj04kFpX4r5q9AqIZzk-132" value="" style="endArrow=none;html=1;rounded=0;exitX=1;exitY=0.5;exitDx=0;exitDy=0;entryX=0.057;entryY=0.955;entryDx=0;entryDy=0;entryPerimeter=0;" parent="1" source="btj04kFpX4r5q9AqIZzk-128" target="btj04kFpX4r5q9AqIZzk-121" edge="1">
          <mxGeometry relative="1" as="geometry">
            <mxPoint x="-30830" y="-15190" as="sourcePoint" />
            <mxPoint x="-30808" y="-15190" as="targetPoint" />
          </mxGeometry>
        </mxCell>
        <mxCell id="btj04kFpX4r5q9AqIZzk-133" value="" style="endArrow=none;html=1;rounded=0;exitX=0.5;exitY=0;exitDx=0;exitDy=0;entryX=0.25;entryY=1;entryDx=0;entryDy=0;" parent="1" source="btj04kFpX4r5q9AqIZzk-129" target="btj04kFpX4r5q9AqIZzk-121" edge="1">
          <mxGeometry relative="1" as="geometry">
            <mxPoint x="-30900" y="-15178" as="sourcePoint" />
            <mxPoint x="-30884" y="-15210" as="targetPoint" />
          </mxGeometry>
        </mxCell>
        <mxCell id="btj04kFpX4r5q9AqIZzk-134" value="" style="endArrow=none;html=1;rounded=0;exitX=0;exitY=0;exitDx=0;exitDy=0;entryX=0.5;entryY=1;entryDx=0;entryDy=0;" parent="1" source="btj04kFpX4r5q9AqIZzk-126" target="btj04kFpX4r5q9AqIZzk-121" edge="1">
          <mxGeometry relative="1" as="geometry">
            <mxPoint x="-30830" y="-15168" as="sourcePoint" />
            <mxPoint x="-30814" y="-15200" as="targetPoint" />
          </mxGeometry>
        </mxCell>
        <mxCell id="btj04kFpX4r5q9AqIZzk-135" value="Allergy" style="whiteSpace=wrap;html=1;align=center;" parent="1" vertex="1">
          <mxGeometry x="-30560" y="-15275" width="100" height="40" as="geometry" />
        </mxCell>
        <mxCell id="btj04kFpX4r5q9AqIZzk-136" value="Refers&amp;nbsp;&lt;div&gt;to&lt;/div&gt;" style="shape=rhombus;perimeter=rhombusPerimeter;whiteSpace=wrap;html=1;align=center;" parent="1" vertex="1">
          <mxGeometry x="-30760" y="-15285" width="120" height="60" as="geometry" />
        </mxCell>
        <mxCell id="btj04kFpX4r5q9AqIZzk-137" value="" style="endArrow=none;html=1;rounded=0;exitX=0;exitY=0.5;exitDx=0;exitDy=0;entryX=1;entryY=0.5;entryDx=0;entryDy=0;" parent="1" source="btj04kFpX4r5q9AqIZzk-135" target="btj04kFpX4r5q9AqIZzk-136" edge="1">
          <mxGeometry relative="1" as="geometry">
            <mxPoint x="-30720" y="-15155" as="sourcePoint" />
            <mxPoint x="-30560" y="-15155" as="targetPoint" />
          </mxGeometry>
        </mxCell>
        <mxCell id="btj04kFpX4r5q9AqIZzk-138" value="1" style="resizable=0;html=1;whiteSpace=wrap;align=right;verticalAlign=bottom;" parent="btj04kFpX4r5q9AqIZzk-137" connectable="0" vertex="1">
          <mxGeometry x="1" relative="1" as="geometry">
            <mxPoint x="70" as="offset" />
          </mxGeometry>
        </mxCell>
        <mxCell id="btj04kFpX4r5q9AqIZzk-139" value="ID" style="ellipse;whiteSpace=wrap;html=1;align=center;fontStyle=4;" parent="1" vertex="1">
          <mxGeometry x="-30580" y="-15385" width="40" height="40" as="geometry" />
        </mxCell>
        <mxCell id="btj04kFpX4r5q9AqIZzk-140" value="Name" style="ellipse;whiteSpace=wrap;html=1;align=center;" parent="1" vertex="1">
          <mxGeometry x="-30530" y="-15385" width="60" height="40" as="geometry" />
        </mxCell>
        <mxCell id="btj04kFpX4r5q9AqIZzk-141" value="Type" style="ellipse;whiteSpace=wrap;html=1;align=center;" parent="1" vertex="1">
          <mxGeometry x="-30460" y="-15365" width="60" height="40" as="geometry" />
        </mxCell>
        <mxCell id="btj04kFpX4r5q9AqIZzk-142" value="Allergen" style="ellipse;whiteSpace=wrap;html=1;align=center;" parent="1" vertex="1">
          <mxGeometry x="-30440" y="-15315" width="100" height="40" as="geometry" />
        </mxCell>
        <mxCell id="btj04kFpX4r5q9AqIZzk-145" value="" style="endArrow=none;html=1;rounded=0;exitX=0.5;exitY=1;exitDx=0;exitDy=0;entryX=0.25;entryY=0;entryDx=0;entryDy=0;" parent="1" source="btj04kFpX4r5q9AqIZzk-139" target="btj04kFpX4r5q9AqIZzk-135" edge="1">
          <mxGeometry relative="1" as="geometry">
            <mxPoint x="-30440" y="-15245" as="sourcePoint" />
            <mxPoint x="-30280" y="-15245" as="targetPoint" />
          </mxGeometry>
        </mxCell>
        <mxCell id="btj04kFpX4r5q9AqIZzk-146" value="" style="endArrow=none;html=1;rounded=0;exitX=0.5;exitY=1;exitDx=0;exitDy=0;entryX=0.5;entryY=0;entryDx=0;entryDy=0;" parent="1" source="btj04kFpX4r5q9AqIZzk-140" target="btj04kFpX4r5q9AqIZzk-135" edge="1">
          <mxGeometry relative="1" as="geometry">
            <mxPoint x="-30250" y="-15415" as="sourcePoint" />
            <mxPoint x="-30090" y="-15415" as="targetPoint" />
          </mxGeometry>
        </mxCell>
        <mxCell id="btj04kFpX4r5q9AqIZzk-147" value="" style="endArrow=none;html=1;rounded=0;exitX=0;exitY=1;exitDx=0;exitDy=0;entryX=0.75;entryY=0;entryDx=0;entryDy=0;" parent="1" source="btj04kFpX4r5q9AqIZzk-141" target="btj04kFpX4r5q9AqIZzk-135" edge="1">
          <mxGeometry relative="1" as="geometry">
            <mxPoint x="-30170" y="-15425" as="sourcePoint" />
            <mxPoint x="-30180" y="-15355" as="targetPoint" />
          </mxGeometry>
        </mxCell>
        <mxCell id="btj04kFpX4r5q9AqIZzk-148" value="" style="endArrow=none;html=1;rounded=0;exitX=0;exitY=0.5;exitDx=0;exitDy=0;entryX=1;entryY=0;entryDx=0;entryDy=0;" parent="1" source="btj04kFpX4r5q9AqIZzk-142" target="btj04kFpX4r5q9AqIZzk-135" edge="1">
          <mxGeometry relative="1" as="geometry">
            <mxPoint x="-30480" y="-15285" as="sourcePoint" />
            <mxPoint x="-30490" y="-15215" as="targetPoint" />
          </mxGeometry>
        </mxCell>
        <mxCell id="btj04kFpX4r5q9AqIZzk-153" value="" style="endArrow=none;html=1;rounded=0;exitX=0;exitY=0.5;exitDx=0;exitDy=0;entryX=1;entryY=0.5;entryDx=0;entryDy=0;" parent="1" source="btj04kFpX4r5q9AqIZzk-136" target="btj04kFpX4r5q9AqIZzk-121" edge="1">
          <mxGeometry relative="1" as="geometry">
            <mxPoint x="-30800" y="-15180" as="sourcePoint" />
            <mxPoint x="-30640" y="-15180" as="targetPoint" />
          </mxGeometry>
        </mxCell>
        <mxCell id="btj04kFpX4r5q9AqIZzk-154" value="1" style="resizable=0;html=1;whiteSpace=wrap;align=right;verticalAlign=bottom;" parent="btj04kFpX4r5q9AqIZzk-153" connectable="0" vertex="1">
          <mxGeometry x="1" relative="1" as="geometry">
            <mxPoint x="20" as="offset" />
          </mxGeometry>
        </mxCell>
        <mxCell id="btj04kFpX4r5q9AqIZzk-157" value="" style="endArrow=none;html=1;rounded=0;entryX=0.69;entryY=1.037;entryDx=0;entryDy=0;exitX=0.5;exitY=0;exitDx=0;exitDy=0;entryPerimeter=0;" parent="1" source="btj04kFpX4r5q9AqIZzk-159" target="btj04kFpX4r5q9AqIZzk-78" edge="1">
          <mxGeometry relative="1" as="geometry">
            <mxPoint x="-31130" y="-15220" as="sourcePoint" />
            <mxPoint x="-30960" y="-15250" as="targetPoint" />
          </mxGeometry>
        </mxCell>
        <mxCell id="btj04kFpX4r5q9AqIZzk-158" value="1" style="resizable=0;html=1;whiteSpace=wrap;align=right;verticalAlign=bottom;" parent="btj04kFpX4r5q9AqIZzk-157" connectable="0" vertex="1">
          <mxGeometry x="1" relative="1" as="geometry">
            <mxPoint y="20" as="offset" />
          </mxGeometry>
        </mxCell>
        <mxCell id="btj04kFpX4r5q9AqIZzk-159" value="Contains" style="shape=rhombus;double=1;perimeter=rhombusPerimeter;whiteSpace=wrap;html=1;align=center;" parent="1" vertex="1">
          <mxGeometry x="-31170" y="-15160" width="120" height="60" as="geometry" />
        </mxCell>
        <mxCell id="btj04kFpX4r5q9AqIZzk-160" value="Condition&lt;div&gt;Diagnosis&lt;/div&gt;" style="shape=ext;margin=3;double=1;whiteSpace=wrap;html=1;align=center;" parent="1" vertex="1">
          <mxGeometry x="-30940" y="-14950" width="100" height="40" as="geometry" />
        </mxCell>
        <mxCell id="btj04kFpX4r5q9AqIZzk-161" value="" style="endArrow=none;html=1;rounded=0;exitX=0.5;exitY=1;exitDx=0;exitDy=0;entryX=0;entryY=0.5;entryDx=0;entryDy=0;" parent="1" source="btj04kFpX4r5q9AqIZzk-159" target="btj04kFpX4r5q9AqIZzk-160" edge="1">
          <mxGeometry relative="1" as="geometry">
            <mxPoint x="-31060" y="-15030" as="sourcePoint" />
            <mxPoint x="-30900" y="-15030" as="targetPoint" />
            <Array as="points">
              <mxPoint x="-31110" y="-14930" />
            </Array>
          </mxGeometry>
        </mxCell>
        <mxCell id="btj04kFpX4r5q9AqIZzk-162" value="N" style="resizable=0;html=1;whiteSpace=wrap;align=right;verticalAlign=bottom;" parent="btj04kFpX4r5q9AqIZzk-161" connectable="0" vertex="1">
          <mxGeometry x="1" relative="1" as="geometry">
            <mxPoint x="-10" as="offset" />
          </mxGeometry>
        </mxCell>
        <mxCell id="btj04kFpX4r5q9AqIZzk-165" value="&lt;span style=&quot;border-bottom: 1px dotted&quot;&gt;Medical history ID&lt;/span&gt;" style="ellipse;whiteSpace=wrap;html=1;align=center;" parent="1" vertex="1">
          <mxGeometry x="-31062" y="-15030" width="100" height="40" as="geometry" />
        </mxCell>
        <mxCell id="btj04kFpX4r5q9AqIZzk-167" value="&lt;span style=&quot;border-bottom: 1px dotted&quot;&gt;Condition&lt;/span&gt;&lt;div&gt;&lt;span style=&quot;border-bottom: 1px dotted&quot;&gt;ID&lt;/span&gt;&lt;/div&gt;" style="ellipse;whiteSpace=wrap;html=1;align=center;" parent="1" vertex="1">
          <mxGeometry x="-30840" y="-15030" width="90" height="40" as="geometry" />
        </mxCell>
        <mxCell id="btj04kFpX4r5q9AqIZzk-168" value="diagnosis&amp;nbsp;&lt;div&gt;Date&lt;/div&gt;" style="ellipse;whiteSpace=wrap;html=1;align=center;" parent="1" vertex="1">
          <mxGeometry x="-30940" y="-15050" width="82" height="40" as="geometry" />
        </mxCell>
        <mxCell id="btj04kFpX4r5q9AqIZzk-170" value="Severity" style="ellipse;whiteSpace=wrap;html=1;align=center;" parent="1" vertex="1">
          <mxGeometry x="-31000" y="-14880" width="60" height="40" as="geometry" />
        </mxCell>
        <mxCell id="btj04kFpX4r5q9AqIZzk-171" value="Triggers" style="ellipse;whiteSpace=wrap;html=1;align=center;" parent="1" vertex="1">
          <mxGeometry x="-30920" y="-14870" width="70" height="40" as="geometry" />
        </mxCell>
        <mxCell id="btj04kFpX4r5q9AqIZzk-172" value="&lt;span style=&quot;border-bottom: 1px dotted&quot;&gt;Diagnosing&lt;/span&gt;&lt;div&gt;&lt;span style=&quot;border-bottom: 1px dotted&quot;&gt;Doctor&lt;/span&gt;&lt;/div&gt;" style="ellipse;whiteSpace=wrap;html=1;align=center;" parent="1" vertex="1">
          <mxGeometry x="-30830" y="-14880" width="100" height="40" as="geometry" />
        </mxCell>
        <mxCell id="btj04kFpX4r5q9AqIZzk-173" value="" style="endArrow=none;html=1;rounded=0;exitX=0.5;exitY=1;exitDx=0;exitDy=0;entryX=0;entryY=0;entryDx=0;entryDy=0;" parent="1" source="btj04kFpX4r5q9AqIZzk-165" target="btj04kFpX4r5q9AqIZzk-160" edge="1">
          <mxGeometry relative="1" as="geometry">
            <mxPoint x="-30920" y="-14870" as="sourcePoint" />
            <mxPoint x="-30760" y="-14870" as="targetPoint" />
          </mxGeometry>
        </mxCell>
        <mxCell id="btj04kFpX4r5q9AqIZzk-174" value="" style="endArrow=none;html=1;rounded=0;exitX=0.5;exitY=1;exitDx=0;exitDy=0;entryX=0.5;entryY=0;entryDx=0;entryDy=0;" parent="1" source="btj04kFpX4r5q9AqIZzk-168" target="btj04kFpX4r5q9AqIZzk-160" edge="1">
          <mxGeometry relative="1" as="geometry">
            <mxPoint x="-30950" y="-14950" as="sourcePoint" />
            <mxPoint x="-30878" y="-14910" as="targetPoint" />
          </mxGeometry>
        </mxCell>
        <mxCell id="btj04kFpX4r5q9AqIZzk-175" value="" style="endArrow=none;html=1;rounded=0;exitX=0.75;exitY=0;exitDx=0;exitDy=0;entryX=0;entryY=1;entryDx=0;entryDy=0;" parent="1" source="btj04kFpX4r5q9AqIZzk-160" target="btj04kFpX4r5q9AqIZzk-167" edge="1">
          <mxGeometry relative="1" as="geometry">
            <mxPoint x="-30690" y="-14900" as="sourcePoint" />
            <mxPoint x="-30618" y="-14860" as="targetPoint" />
          </mxGeometry>
        </mxCell>
        <mxCell id="btj04kFpX4r5q9AqIZzk-176" value="" style="endArrow=none;html=1;rounded=0;exitX=1;exitY=1;exitDx=0;exitDy=0;entryX=0;entryY=0;entryDx=0;entryDy=0;" parent="1" source="btj04kFpX4r5q9AqIZzk-160" target="btj04kFpX4r5q9AqIZzk-172" edge="1">
          <mxGeometry relative="1" as="geometry">
            <mxPoint x="-30830" y="-15000" as="sourcePoint" />
            <mxPoint x="-30758" y="-14960" as="targetPoint" />
          </mxGeometry>
        </mxCell>
        <mxCell id="btj04kFpX4r5q9AqIZzk-177" value="" style="endArrow=none;html=1;rounded=0;exitX=0.5;exitY=1;exitDx=0;exitDy=0;entryX=0.5;entryY=0;entryDx=0;entryDy=0;" parent="1" source="btj04kFpX4r5q9AqIZzk-160" target="btj04kFpX4r5q9AqIZzk-171" edge="1">
          <mxGeometry relative="1" as="geometry">
            <mxPoint x="-30880" y="-14760" as="sourcePoint" />
            <mxPoint x="-30808" y="-14720" as="targetPoint" />
          </mxGeometry>
        </mxCell>
        <mxCell id="btj04kFpX4r5q9AqIZzk-178" value="" style="endArrow=none;html=1;rounded=0;exitX=0;exitY=1;exitDx=0;exitDy=0;entryX=0.5;entryY=0;entryDx=0;entryDy=0;" parent="1" source="btj04kFpX4r5q9AqIZzk-160" target="btj04kFpX4r5q9AqIZzk-170" edge="1">
          <mxGeometry relative="1" as="geometry">
            <mxPoint x="-30900" y="-14710" as="sourcePoint" />
            <mxPoint x="-30828" y="-14670" as="targetPoint" />
          </mxGeometry>
        </mxCell>
        <mxCell id="btj04kFpX4r5q9AqIZzk-179" value="Refers&lt;div&gt;to&lt;/div&gt;" style="shape=rhombus;perimeter=rhombusPerimeter;whiteSpace=wrap;html=1;align=center;" parent="1" vertex="1">
          <mxGeometry x="-30700" y="-14960" width="110" height="60" as="geometry" />
        </mxCell>
        <mxCell id="btj04kFpX4r5q9AqIZzk-180" value="" style="endArrow=none;html=1;rounded=0;exitX=0;exitY=0.5;exitDx=0;exitDy=0;entryX=1;entryY=0.5;entryDx=0;entryDy=0;" parent="1" source="btj04kFpX4r5q9AqIZzk-179" target="btj04kFpX4r5q9AqIZzk-160" edge="1">
          <mxGeometry relative="1" as="geometry">
            <mxPoint x="-30750" y="-15000" as="sourcePoint" />
            <mxPoint x="-30590" y="-15000" as="targetPoint" />
          </mxGeometry>
        </mxCell>
        <mxCell id="btj04kFpX4r5q9AqIZzk-181" value="1" style="resizable=0;html=1;whiteSpace=wrap;align=right;verticalAlign=bottom;" parent="btj04kFpX4r5q9AqIZzk-180" connectable="0" vertex="1">
          <mxGeometry x="1" relative="1" as="geometry">
            <mxPoint x="10" as="offset" />
          </mxGeometry>
        </mxCell>
        <mxCell id="btj04kFpX4r5q9AqIZzk-183" value="" style="endArrow=none;html=1;rounded=0;entryX=1;entryY=0.5;entryDx=0;entryDy=0;" parent="1" target="btj04kFpX4r5q9AqIZzk-179" edge="1">
          <mxGeometry relative="1" as="geometry">
            <mxPoint x="-30480" y="-14930" as="sourcePoint" />
            <mxPoint x="-30620" y="-15260" as="targetPoint" />
          </mxGeometry>
        </mxCell>
        <mxCell id="btj04kFpX4r5q9AqIZzk-184" value="1" style="resizable=0;html=1;whiteSpace=wrap;align=right;verticalAlign=bottom;" parent="btj04kFpX4r5q9AqIZzk-183" connectable="0" vertex="1">
          <mxGeometry x="1" relative="1" as="geometry">
            <mxPoint x="90" y="-10" as="offset" />
          </mxGeometry>
        </mxCell>
        <mxCell id="btj04kFpX4r5q9AqIZzk-185" value="Condition" style="whiteSpace=wrap;html=1;align=center;" parent="1" vertex="1">
          <mxGeometry x="-30480" y="-14950" width="100" height="40" as="geometry" />
        </mxCell>
        <mxCell id="btj04kFpX4r5q9AqIZzk-187" value="ID" style="ellipse;whiteSpace=wrap;html=1;align=center;fontStyle=4;" parent="1" vertex="1">
          <mxGeometry x="-30500" y="-15070" width="40" height="40" as="geometry" />
        </mxCell>
        <mxCell id="btj04kFpX4r5q9AqIZzk-188" value="Description" style="ellipse;whiteSpace=wrap;html=1;align=center;" parent="1" vertex="1">
          <mxGeometry x="-30350" y="-15000" width="80" height="40" as="geometry" />
        </mxCell>
        <mxCell id="btj04kFpX4r5q9AqIZzk-189" value="Type" style="ellipse;whiteSpace=wrap;html=1;align=center;" parent="1" vertex="1">
          <mxGeometry x="-30370" y="-15050" width="50" height="40" as="geometry" />
        </mxCell>
        <mxCell id="btj04kFpX4r5q9AqIZzk-190" value="Name" style="ellipse;whiteSpace=wrap;html=1;align=center;" parent="1" vertex="1">
          <mxGeometry x="-30440" y="-15070" width="50" height="40" as="geometry" />
        </mxCell>
        <mxCell id="btj04kFpX4r5q9AqIZzk-191" value="" style="endArrow=none;html=1;rounded=0;exitX=0.5;exitY=1;exitDx=0;exitDy=0;entryX=0.25;entryY=0;entryDx=0;entryDy=0;" parent="1" source="btj04kFpX4r5q9AqIZzk-187" target="btj04kFpX4r5q9AqIZzk-185" edge="1">
          <mxGeometry relative="1" as="geometry">
            <mxPoint x="-30500" y="-14920" as="sourcePoint" />
            <mxPoint x="-30340" y="-14920" as="targetPoint" />
          </mxGeometry>
        </mxCell>
        <mxCell id="btj04kFpX4r5q9AqIZzk-192" value="" style="endArrow=none;html=1;rounded=0;exitX=0.5;exitY=1;exitDx=0;exitDy=0;entryX=0.5;entryY=0;entryDx=0;entryDy=0;" parent="1" source="btj04kFpX4r5q9AqIZzk-190" target="btj04kFpX4r5q9AqIZzk-185" edge="1">
          <mxGeometry relative="1" as="geometry">
            <mxPoint x="-30310" y="-14930" as="sourcePoint" />
            <mxPoint x="-30285" y="-14850" as="targetPoint" />
          </mxGeometry>
        </mxCell>
        <mxCell id="btj04kFpX4r5q9AqIZzk-193" value="" style="endArrow=none;html=1;rounded=0;exitX=0;exitY=1;exitDx=0;exitDy=0;entryX=0.75;entryY=0;entryDx=0;entryDy=0;" parent="1" source="btj04kFpX4r5q9AqIZzk-189" target="btj04kFpX4r5q9AqIZzk-185" edge="1">
          <mxGeometry relative="1" as="geometry">
            <mxPoint x="-30260" y="-14850" as="sourcePoint" />
            <mxPoint x="-30235" y="-14770" as="targetPoint" />
          </mxGeometry>
        </mxCell>
        <mxCell id="btj04kFpX4r5q9AqIZzk-194" value="" style="endArrow=none;html=1;rounded=0;entryX=1;entryY=0;entryDx=0;entryDy=0;exitX=0;exitY=1;exitDx=0;exitDy=0;" parent="1" source="btj04kFpX4r5q9AqIZzk-188" target="btj04kFpX4r5q9AqIZzk-185" edge="1">
          <mxGeometry relative="1" as="geometry">
            <mxPoint x="-30410" y="-14960" as="sourcePoint" />
            <mxPoint x="-30385" y="-14880" as="targetPoint" />
          </mxGeometry>
        </mxCell>
        <mxCell id="_-Cq7pc6418bO_3nFrA7-1" value="Contains" style="shape=rhombus;double=1;perimeter=rhombusPerimeter;whiteSpace=wrap;html=1;align=center;" parent="1" vertex="1">
          <mxGeometry x="-31280" y="-15160" width="100" height="60" as="geometry" />
        </mxCell>
        <mxCell id="_-Cq7pc6418bO_3nFrA7-2" value="" style="endArrow=none;html=1;rounded=0;exitX=0.5;exitY=0;exitDx=0;exitDy=0;entryX=0.25;entryY=1;entryDx=0;entryDy=0;" parent="1" source="_-Cq7pc6418bO_3nFrA7-1" target="btj04kFpX4r5q9AqIZzk-78" edge="1">
          <mxGeometry relative="1" as="geometry">
            <mxPoint x="-31080" y="-15030" as="sourcePoint" />
            <mxPoint x="-30920" y="-15030" as="targetPoint" />
            <Array as="points">
              <mxPoint x="-31230" y="-15290" />
              <mxPoint x="-31155" y="-15290" />
            </Array>
          </mxGeometry>
        </mxCell>
        <mxCell id="_-Cq7pc6418bO_3nFrA7-3" value="1" style="resizable=0;html=1;whiteSpace=wrap;align=right;verticalAlign=bottom;" parent="_-Cq7pc6418bO_3nFrA7-2" connectable="0" vertex="1">
          <mxGeometry x="1" relative="1" as="geometry">
            <mxPoint y="20" as="offset" />
          </mxGeometry>
        </mxCell>
        <mxCell id="_-Cq7pc6418bO_3nFrA7-4" value="" style="endArrow=none;html=1;rounded=0;entryX=0;entryY=0.5;entryDx=0;entryDy=0;exitX=0.5;exitY=1;exitDx=0;exitDy=0;" parent="1" source="_-Cq7pc6418bO_3nFrA7-1" target="_-Cq7pc6418bO_3nFrA7-6" edge="1">
          <mxGeometry relative="1" as="geometry">
            <mxPoint x="-31080" y="-14840" as="sourcePoint" />
            <mxPoint x="-30920" y="-14840" as="targetPoint" />
            <Array as="points">
              <mxPoint x="-31230" y="-14650" />
            </Array>
          </mxGeometry>
        </mxCell>
        <mxCell id="_-Cq7pc6418bO_3nFrA7-5" value="N" style="resizable=0;html=1;whiteSpace=wrap;align=right;verticalAlign=bottom;" parent="_-Cq7pc6418bO_3nFrA7-4" connectable="0" vertex="1">
          <mxGeometry x="1" relative="1" as="geometry">
            <mxPoint x="-10" as="offset" />
          </mxGeometry>
        </mxCell>
        <mxCell id="_-Cq7pc6418bO_3nFrA7-6" value="Past&amp;nbsp;&lt;div&gt;Sugery&lt;/div&gt;" style="shape=ext;margin=3;double=1;whiteSpace=wrap;html=1;align=center;" parent="1" vertex="1">
          <mxGeometry x="-30940" y="-14670" width="100" height="40" as="geometry" />
        </mxCell>
        <mxCell id="_-Cq7pc6418bO_3nFrA7-9" value="&lt;span style=&quot;border-bottom: 1px dotted&quot;&gt;Surgery&lt;/span&gt;&lt;div&gt;&lt;span style=&quot;border-bottom: 1px dotted&quot;&gt;ID&lt;/span&gt;&lt;/div&gt;" style="ellipse;whiteSpace=wrap;html=1;align=center;" parent="1" vertex="1">
          <mxGeometry x="-31030" y="-14740" width="80" height="40" as="geometry" />
        </mxCell>
        <mxCell id="_-Cq7pc6418bO_3nFrA7-10" value="&lt;span style=&quot;border-bottom: 1px dotted&quot;&gt;Medical History ID&lt;/span&gt;" style="ellipse;whiteSpace=wrap;html=1;align=center;" parent="1" vertex="1">
          <mxGeometry x="-30950" y="-14760" width="120" height="40" as="geometry" />
        </mxCell>
        <mxCell id="_-Cq7pc6418bO_3nFrA7-11" value="Date" style="ellipse;whiteSpace=wrap;html=1;align=center;" parent="1" vertex="1">
          <mxGeometry x="-30820" y="-14750" width="50" height="40" as="geometry" />
        </mxCell>
        <mxCell id="_-Cq7pc6418bO_3nFrA7-12" value="Outcome" style="ellipse;whiteSpace=wrap;html=1;align=center;" parent="1" vertex="1">
          <mxGeometry x="-30825" y="-14590" width="60" height="40" as="geometry" />
        </mxCell>
        <mxCell id="_-Cq7pc6418bO_3nFrA7-13" value="Complications" style="ellipse;shape=doubleEllipse;margin=3;whiteSpace=wrap;html=1;align=center;" parent="1" vertex="1">
          <mxGeometry x="-31040" y="-14600" width="100" height="40" as="geometry" />
        </mxCell>
        <mxCell id="_-Cq7pc6418bO_3nFrA7-14" value="Notes" style="ellipse;whiteSpace=wrap;html=1;align=center;" parent="1" vertex="1">
          <mxGeometry x="-30915" y="-14580" width="50" height="40" as="geometry" />
        </mxCell>
        <mxCell id="_-Cq7pc6418bO_3nFrA7-15" value="" style="endArrow=none;html=1;rounded=0;exitX=1;exitY=1;exitDx=0;exitDy=0;entryX=0.25;entryY=0;entryDx=0;entryDy=0;" parent="1" source="_-Cq7pc6418bO_3nFrA7-9" target="_-Cq7pc6418bO_3nFrA7-6" edge="1">
          <mxGeometry relative="1" as="geometry">
            <mxPoint x="-30980" y="-14640" as="sourcePoint" />
            <mxPoint x="-30820" y="-14640" as="targetPoint" />
          </mxGeometry>
        </mxCell>
        <mxCell id="_-Cq7pc6418bO_3nFrA7-16" value="" style="endArrow=none;html=1;rounded=0;exitX=0.5;exitY=1;exitDx=0;exitDy=0;entryX=0.5;entryY=0;entryDx=0;entryDy=0;" parent="1" source="_-Cq7pc6418bO_3nFrA7-10" target="_-Cq7pc6418bO_3nFrA7-6" edge="1">
          <mxGeometry relative="1" as="geometry">
            <mxPoint x="-30980" y="-14640" as="sourcePoint" />
            <mxPoint x="-30820" y="-14640" as="targetPoint" />
          </mxGeometry>
        </mxCell>
        <mxCell id="_-Cq7pc6418bO_3nFrA7-17" value="" style="endArrow=none;html=1;rounded=0;exitX=0;exitY=1;exitDx=0;exitDy=0;entryX=0.75;entryY=0;entryDx=0;entryDy=0;" parent="1" source="_-Cq7pc6418bO_3nFrA7-11" target="_-Cq7pc6418bO_3nFrA7-6" edge="1">
          <mxGeometry relative="1" as="geometry">
            <mxPoint x="-30980" y="-14640" as="sourcePoint" />
            <mxPoint x="-30820" y="-14640" as="targetPoint" />
          </mxGeometry>
        </mxCell>
        <mxCell id="_-Cq7pc6418bO_3nFrA7-18" value="" style="endArrow=none;html=1;rounded=0;entryX=0.5;entryY=0;entryDx=0;entryDy=0;exitX=0.5;exitY=1;exitDx=0;exitDy=0;" parent="1" source="_-Cq7pc6418bO_3nFrA7-6" target="_-Cq7pc6418bO_3nFrA7-14" edge="1">
          <mxGeometry relative="1" as="geometry">
            <mxPoint x="-30980" y="-14640" as="sourcePoint" />
            <mxPoint x="-30820" y="-14640" as="targetPoint" />
          </mxGeometry>
        </mxCell>
        <mxCell id="_-Cq7pc6418bO_3nFrA7-19" value="" style="endArrow=none;html=1;rounded=0;entryX=0.5;entryY=0;entryDx=0;entryDy=0;exitX=0;exitY=1;exitDx=0;exitDy=0;" parent="1" source="_-Cq7pc6418bO_3nFrA7-6" target="_-Cq7pc6418bO_3nFrA7-13" edge="1">
          <mxGeometry relative="1" as="geometry">
            <mxPoint x="-30990" y="-14600" as="sourcePoint" />
            <mxPoint x="-30990" y="-14550" as="targetPoint" />
          </mxGeometry>
        </mxCell>
        <mxCell id="_-Cq7pc6418bO_3nFrA7-20" value="" style="endArrow=none;html=1;rounded=0;entryX=0;entryY=0;entryDx=0;entryDy=0;exitX=1;exitY=1;exitDx=0;exitDy=0;" parent="1" source="_-Cq7pc6418bO_3nFrA7-6" target="_-Cq7pc6418bO_3nFrA7-12" edge="1">
          <mxGeometry relative="1" as="geometry">
            <mxPoint x="-30900" y="-14480" as="sourcePoint" />
            <mxPoint x="-30900" y="-14430" as="targetPoint" />
          </mxGeometry>
        </mxCell>
        <mxCell id="_-Cq7pc6418bO_3nFrA7-22" value="Refers&lt;div&gt;to&lt;/div&gt;" style="shape=rhombus;perimeter=rhombusPerimeter;whiteSpace=wrap;html=1;align=center;" parent="1" vertex="1">
          <mxGeometry x="-30700" y="-14680" width="110" height="60" as="geometry" />
        </mxCell>
        <mxCell id="_-Cq7pc6418bO_3nFrA7-25" value="" style="endArrow=none;html=1;rounded=0;exitX=0;exitY=0.5;exitDx=0;exitDy=0;entryX=1;entryY=0.5;entryDx=0;entryDy=0;" parent="1" source="_-Cq7pc6418bO_3nFrA7-22" target="_-Cq7pc6418bO_3nFrA7-6" edge="1">
          <mxGeometry relative="1" as="geometry">
            <mxPoint x="-30820" y="-14750" as="sourcePoint" />
            <mxPoint x="-30660" y="-14750" as="targetPoint" />
          </mxGeometry>
        </mxCell>
        <mxCell id="_-Cq7pc6418bO_3nFrA7-26" value="1" style="resizable=0;html=1;whiteSpace=wrap;align=right;verticalAlign=bottom;" parent="_-Cq7pc6418bO_3nFrA7-25" connectable="0" vertex="1">
          <mxGeometry x="1" relative="1" as="geometry">
            <mxPoint x="10" as="offset" />
          </mxGeometry>
        </mxCell>
        <mxCell id="_-Cq7pc6418bO_3nFrA7-27" value="Surgery" style="whiteSpace=wrap;html=1;align=center;" parent="1" vertex="1">
          <mxGeometry x="-30480" y="-14670" width="100" height="40" as="geometry" />
        </mxCell>
        <mxCell id="_-Cq7pc6418bO_3nFrA7-28" value="" style="endArrow=none;html=1;rounded=0;exitX=1;exitY=0.5;exitDx=0;exitDy=0;entryX=0;entryY=0.5;entryDx=0;entryDy=0;" parent="1" source="_-Cq7pc6418bO_3nFrA7-22" target="_-Cq7pc6418bO_3nFrA7-27" edge="1">
          <mxGeometry relative="1" as="geometry">
            <mxPoint x="-30540" y="-14770" as="sourcePoint" />
            <mxPoint x="-30500" y="-14790" as="targetPoint" />
          </mxGeometry>
        </mxCell>
        <mxCell id="_-Cq7pc6418bO_3nFrA7-29" value="1" style="resizable=0;html=1;whiteSpace=wrap;align=right;verticalAlign=bottom;" parent="_-Cq7pc6418bO_3nFrA7-28" connectable="0" vertex="1">
          <mxGeometry x="1" relative="1" as="geometry" />
        </mxCell>
        <mxCell id="_-Cq7pc6418bO_3nFrA7-30" value="Name" style="ellipse;whiteSpace=wrap;html=1;align=center;" parent="1" vertex="1">
          <mxGeometry x="-30460" y="-14780" width="50" height="40" as="geometry" />
        </mxCell>
        <mxCell id="_-Cq7pc6418bO_3nFrA7-31" value="ID" style="ellipse;whiteSpace=wrap;html=1;align=center;fontStyle=4;" parent="1" vertex="1">
          <mxGeometry x="-30530" y="-14770" width="40" height="40" as="geometry" />
        </mxCell>
        <mxCell id="_-Cq7pc6418bO_3nFrA7-32" value="Category" style="ellipse;whiteSpace=wrap;html=1;align=center;" parent="1" vertex="1">
          <mxGeometry x="-30390" y="-14770" width="60" height="40" as="geometry" />
        </mxCell>
        <mxCell id="_-Cq7pc6418bO_3nFrA7-33" value="Description" style="ellipse;whiteSpace=wrap;html=1;align=center;" parent="1" vertex="1">
          <mxGeometry x="-30365" y="-14600" width="80" height="40" as="geometry" />
        </mxCell>
        <mxCell id="_-Cq7pc6418bO_3nFrA7-34" value="Body Part" style="ellipse;whiteSpace=wrap;html=1;align=center;" parent="1" vertex="1">
          <mxGeometry x="-30350" y="-14652" width="70" height="40" as="geometry" />
        </mxCell>
        <mxCell id="_-Cq7pc6418bO_3nFrA7-35" value="Possible&amp;nbsp;&lt;div&gt;Risks&lt;/div&gt;" style="ellipse;whiteSpace=wrap;html=1;align=center;" parent="1" vertex="1">
          <mxGeometry x="-30360" y="-14710" width="70" height="40" as="geometry" />
        </mxCell>
        <mxCell id="_-Cq7pc6418bO_3nFrA7-36" value="" style="endArrow=none;html=1;rounded=0;exitX=0.712;exitY=0.947;exitDx=0;exitDy=0;exitPerimeter=0;entryX=0;entryY=0;entryDx=0;entryDy=0;" parent="1" source="_-Cq7pc6418bO_3nFrA7-31" target="_-Cq7pc6418bO_3nFrA7-27" edge="1">
          <mxGeometry relative="1" as="geometry">
            <mxPoint x="-30520" y="-14630" as="sourcePoint" />
            <mxPoint x="-30360" y="-14630" as="targetPoint" />
          </mxGeometry>
        </mxCell>
        <mxCell id="_-Cq7pc6418bO_3nFrA7-37" value="" style="endArrow=none;html=1;rounded=0;exitX=0.5;exitY=1;exitDx=0;exitDy=0;entryX=0.25;entryY=0;entryDx=0;entryDy=0;" parent="1" source="_-Cq7pc6418bO_3nFrA7-30" target="_-Cq7pc6418bO_3nFrA7-27" edge="1">
          <mxGeometry relative="1" as="geometry">
            <mxPoint x="-30490" y="-14570" as="sourcePoint" />
            <mxPoint x="-30468" y="-14508" as="targetPoint" />
          </mxGeometry>
        </mxCell>
        <mxCell id="_-Cq7pc6418bO_3nFrA7-38" value="" style="endArrow=none;html=1;rounded=0;exitX=0;exitY=1;exitDx=0;exitDy=0;entryX=0.5;entryY=0;entryDx=0;entryDy=0;" parent="1" source="_-Cq7pc6418bO_3nFrA7-32" target="_-Cq7pc6418bO_3nFrA7-27" edge="1">
          <mxGeometry relative="1" as="geometry">
            <mxPoint x="-30460" y="-14680" as="sourcePoint" />
            <mxPoint x="-30438" y="-14618" as="targetPoint" />
          </mxGeometry>
        </mxCell>
        <mxCell id="_-Cq7pc6418bO_3nFrA7-39" value="" style="endArrow=none;html=1;rounded=0;exitX=0;exitY=0.5;exitDx=0;exitDy=0;entryX=1;entryY=0;entryDx=0;entryDy=0;" parent="1" source="_-Cq7pc6418bO_3nFrA7-35" target="_-Cq7pc6418bO_3nFrA7-27" edge="1">
          <mxGeometry relative="1" as="geometry">
            <mxPoint x="-30430" y="-14670" as="sourcePoint" />
            <mxPoint x="-30408" y="-14608" as="targetPoint" />
          </mxGeometry>
        </mxCell>
        <mxCell id="_-Cq7pc6418bO_3nFrA7-40" value="" style="endArrow=none;html=1;rounded=0;exitX=0;exitY=0.5;exitDx=0;exitDy=0;entryX=1;entryY=0.5;entryDx=0;entryDy=0;" parent="1" source="_-Cq7pc6418bO_3nFrA7-34" target="_-Cq7pc6418bO_3nFrA7-27" edge="1">
          <mxGeometry relative="1" as="geometry">
            <mxPoint x="-30390" y="-14680" as="sourcePoint" />
            <mxPoint x="-30368" y="-14618" as="targetPoint" />
          </mxGeometry>
        </mxCell>
        <mxCell id="_-Cq7pc6418bO_3nFrA7-41" value="" style="endArrow=none;html=1;rounded=0;exitX=1;exitY=1;exitDx=0;exitDy=0;entryX=0;entryY=0;entryDx=0;entryDy=0;" parent="1" source="_-Cq7pc6418bO_3nFrA7-27" target="_-Cq7pc6418bO_3nFrA7-33" edge="1">
          <mxGeometry relative="1" as="geometry">
            <mxPoint x="-30380" y="-14660" as="sourcePoint" />
            <mxPoint x="-30358" y="-14598" as="targetPoint" />
          </mxGeometry>
        </mxCell>
        <mxCell id="_-Cq7pc6418bO_3nFrA7-42" value="" style="endArrow=none;html=1;rounded=0;dashed=1;dashPattern=1 2;entryX=0.5;entryY=1;entryDx=0;entryDy=0;exitX=0.5;exitY=0;exitDx=0;exitDy=0;" parent="1" source="_-Cq7pc6418bO_3nFrA7-44" target="btj04kFpX4r5q9AqIZzk-34" edge="1">
          <mxGeometry relative="1" as="geometry">
            <mxPoint x="-31490" y="-15380" as="sourcePoint" />
            <mxPoint x="-31240" y="-15440" as="targetPoint" />
          </mxGeometry>
        </mxCell>
        <mxCell id="_-Cq7pc6418bO_3nFrA7-43" value="1" style="resizable=0;html=1;whiteSpace=wrap;align=right;verticalAlign=bottom;" parent="_-Cq7pc6418bO_3nFrA7-42" connectable="0" vertex="1">
          <mxGeometry x="1" relative="1" as="geometry">
            <mxPoint x="-10" y="20" as="offset" />
          </mxGeometry>
        </mxCell>
        <mxCell id="_-Cq7pc6418bO_3nFrA7-44" value="Covered&amp;nbsp;&lt;div&gt;by&lt;/div&gt;" style="shape=rhombus;perimeter=rhombusPerimeter;whiteSpace=wrap;html=1;align=center;" parent="1" vertex="1">
          <mxGeometry x="-31555" y="-15350" width="90" height="60" as="geometry" />
        </mxCell>
        <mxCell id="_-Cq7pc6418bO_3nFrA7-45" value="Insurance" style="whiteSpace=wrap;html=1;align=center;" parent="1" vertex="1">
          <mxGeometry x="-31697.5" y="-15135" width="100" height="40" as="geometry" />
        </mxCell>
        <mxCell id="_-Cq7pc6418bO_3nFrA7-46" value="" style="endArrow=none;html=1;rounded=0;exitX=0.5;exitY=1;exitDx=0;exitDy=0;entryX=0.5;entryY=0;entryDx=0;entryDy=0;" parent="1" source="_-Cq7pc6418bO_3nFrA7-44" target="_-Cq7pc6418bO_3nFrA7-45" edge="1">
          <mxGeometry relative="1" as="geometry">
            <mxPoint x="-31360" y="-15120" as="sourcePoint" />
            <mxPoint x="-31200" y="-15120" as="targetPoint" />
            <Array as="points">
              <mxPoint x="-31510" y="-15250" />
              <mxPoint x="-31647" y="-15250" />
            </Array>
          </mxGeometry>
        </mxCell>
        <mxCell id="_-Cq7pc6418bO_3nFrA7-47" value="1" style="resizable=0;html=1;whiteSpace=wrap;align=right;verticalAlign=bottom;" parent="_-Cq7pc6418bO_3nFrA7-46" connectable="0" vertex="1">
          <mxGeometry x="1" relative="1" as="geometry">
            <mxPoint x="-10" y="-11" as="offset" />
          </mxGeometry>
        </mxCell>
        <mxCell id="_-Cq7pc6418bO_3nFrA7-48" value="ID" style="ellipse;whiteSpace=wrap;html=1;align=center;fontStyle=4;" parent="1" vertex="1">
          <mxGeometry x="-31737.5" y="-15205" width="40" height="40" as="geometry" />
        </mxCell>
        <mxCell id="_-Cq7pc6418bO_3nFrA7-49" value="&lt;span style=&quot;border-bottom: 1px dotted&quot;&gt;Person ID&lt;/span&gt;" style="ellipse;whiteSpace=wrap;html=1;align=center;" parent="1" vertex="1">
          <mxGeometry x="-31450" y="-15420" width="70" height="40" as="geometry" />
        </mxCell>
        <mxCell id="_-Cq7pc6418bO_3nFrA7-50" value="Provider&amp;nbsp;&lt;br&gt;Name" style="ellipse;whiteSpace=wrap;html=1;align=center;" parent="1" vertex="1">
          <mxGeometry x="-31557.5" y="-15135" width="80" height="40" as="geometry" />
        </mxCell>
        <mxCell id="_-Cq7pc6418bO_3nFrA7-51" value="Hospitalization&lt;div&gt;Coverage&lt;/div&gt;" style="ellipse;whiteSpace=wrap;html=1;align=center;" parent="1" vertex="1">
          <mxGeometry x="-31632.5" y="-15060" width="90" height="50" as="geometry" />
        </mxCell>
        <mxCell id="_-Cq7pc6418bO_3nFrA7-53" value="Medicine&amp;nbsp;&lt;div&gt;Coverage&lt;/div&gt;" style="ellipse;whiteSpace=wrap;html=1;align=center;" parent="1" vertex="1">
          <mxGeometry x="-31627.5" y="-15205" width="80" height="40" as="geometry" />
        </mxCell>
        <mxCell id="_-Cq7pc6418bO_3nFrA7-56" value="Annual&lt;div&gt;Limit&lt;/div&gt;" style="ellipse;whiteSpace=wrap;html=1;align=center;" parent="1" vertex="1">
          <mxGeometry x="-31817.5" y="-15165" width="80" height="40" as="geometry" />
        </mxCell>
        <mxCell id="SaxFCq5MfIyH9ILcLWhI-1" value="Start&lt;div&gt;Date&lt;/div&gt;" style="ellipse;whiteSpace=wrap;html=1;align=center;" vertex="1" parent="1">
          <mxGeometry x="-31807.5" y="-15115" width="80" height="40" as="geometry" />
        </mxCell>
        <mxCell id="SaxFCq5MfIyH9ILcLWhI-2" value="End&amp;nbsp;&lt;div&gt;Date&lt;/div&gt;" style="ellipse;whiteSpace=wrap;html=1;align=center;" vertex="1" parent="1">
          <mxGeometry x="-31787.5" y="-15065" width="80" height="40" as="geometry" />
        </mxCell>
        <mxCell id="SaxFCq5MfIyH9ILcLWhI-3" value="Type" style="ellipse;whiteSpace=wrap;html=1;align=center;" vertex="1" parent="1">
          <mxGeometry x="-31692.5" y="-15055" width="50" height="40" as="geometry" />
        </mxCell>
        <mxCell id="SaxFCq5MfIyH9ILcLWhI-4" value="Emergency&lt;div&gt;Contact&lt;/div&gt;" style="ellipse;whiteSpace=wrap;html=1;align=center;" vertex="1" parent="1">
          <mxGeometry x="-31380" y="-15685" width="80" height="50" as="geometry" />
        </mxCell>
        <mxCell id="SaxFCq5MfIyH9ILcLWhI-5" value="" style="endArrow=none;html=1;rounded=0;exitX=0.5;exitY=1;exitDx=0;exitDy=0;entryX=0.75;entryY=0;entryDx=0;entryDy=0;" edge="1" parent="1" source="SaxFCq5MfIyH9ILcLWhI-4" target="btj04kFpX4r5q9AqIZzk-34">
          <mxGeometry relative="1" as="geometry">
            <mxPoint x="-31580" y="-15490" as="sourcePoint" />
            <mxPoint x="-31420" y="-15490" as="targetPoint" />
          </mxGeometry>
        </mxCell>
        <mxCell id="SaxFCq5MfIyH9ILcLWhI-6" value="" style="endArrow=none;html=1;rounded=0;exitX=0.5;exitY=1;exitDx=0;exitDy=0;entryX=1;entryY=0;entryDx=0;entryDy=0;" edge="1" parent="1" source="_-Cq7pc6418bO_3nFrA7-49" target="_-Cq7pc6418bO_3nFrA7-44">
          <mxGeometry relative="1" as="geometry">
            <mxPoint x="-31580" y="-15360" as="sourcePoint" />
            <mxPoint x="-31420" y="-15360" as="targetPoint" />
          </mxGeometry>
        </mxCell>
        <mxCell id="SaxFCq5MfIyH9ILcLWhI-7" value="" style="endArrow=none;html=1;rounded=0;exitX=1;exitY=1;exitDx=0;exitDy=0;entryX=0;entryY=0;entryDx=0;entryDy=0;" edge="1" parent="1" source="_-Cq7pc6418bO_3nFrA7-48" target="_-Cq7pc6418bO_3nFrA7-45">
          <mxGeometry relative="1" as="geometry">
            <mxPoint x="-31697.5" y="-15185" as="sourcePoint" />
            <mxPoint x="-31537.5" y="-15185" as="targetPoint" />
          </mxGeometry>
        </mxCell>
        <mxCell id="SaxFCq5MfIyH9ILcLWhI-9" value="" style="endArrow=none;html=1;rounded=0;exitX=1;exitY=0.5;exitDx=0;exitDy=0;entryX=0;entryY=0.25;entryDx=0;entryDy=0;" edge="1" parent="1" source="_-Cq7pc6418bO_3nFrA7-56" target="_-Cq7pc6418bO_3nFrA7-45">
          <mxGeometry relative="1" as="geometry">
            <mxPoint x="-31697.5" y="-15145" as="sourcePoint" />
            <mxPoint x="-31691.5" y="-15109" as="targetPoint" />
          </mxGeometry>
        </mxCell>
        <mxCell id="SaxFCq5MfIyH9ILcLWhI-10" value="" style="endArrow=none;html=1;rounded=0;exitX=1;exitY=0.5;exitDx=0;exitDy=0;entryX=0;entryY=0.5;entryDx=0;entryDy=0;" edge="1" parent="1" source="SaxFCq5MfIyH9ILcLWhI-1" target="_-Cq7pc6418bO_3nFrA7-45">
          <mxGeometry relative="1" as="geometry">
            <mxPoint x="-31697.5" y="-15135" as="sourcePoint" />
            <mxPoint x="-31691.5" y="-15099" as="targetPoint" />
          </mxGeometry>
        </mxCell>
        <mxCell id="SaxFCq5MfIyH9ILcLWhI-11" value="" style="endArrow=none;html=1;rounded=0;exitX=0;exitY=1;exitDx=0;exitDy=0;entryX=1;entryY=0;entryDx=0;entryDy=0;" edge="1" parent="1" source="_-Cq7pc6418bO_3nFrA7-45" target="SaxFCq5MfIyH9ILcLWhI-2">
          <mxGeometry relative="1" as="geometry">
            <mxPoint x="-31557.5" y="-15025" as="sourcePoint" />
            <mxPoint x="-31551.5" y="-14989" as="targetPoint" />
          </mxGeometry>
        </mxCell>
        <mxCell id="SaxFCq5MfIyH9ILcLWhI-12" value="" style="endArrow=none;html=1;rounded=0;exitX=0.25;exitY=1;exitDx=0;exitDy=0;entryX=0.5;entryY=0;entryDx=0;entryDy=0;" edge="1" parent="1" source="_-Cq7pc6418bO_3nFrA7-45" target="SaxFCq5MfIyH9ILcLWhI-3">
          <mxGeometry relative="1" as="geometry">
            <mxPoint x="-31717.5" y="-15065" as="sourcePoint" />
            <mxPoint x="-31711.5" y="-15029" as="targetPoint" />
          </mxGeometry>
        </mxCell>
        <mxCell id="SaxFCq5MfIyH9ILcLWhI-13" value="" style="endArrow=none;html=1;rounded=0;exitX=0.75;exitY=1;exitDx=0;exitDy=0;entryX=0;entryY=0;entryDx=0;entryDy=0;" edge="1" parent="1" source="_-Cq7pc6418bO_3nFrA7-45" target="_-Cq7pc6418bO_3nFrA7-51">
          <mxGeometry relative="1" as="geometry">
            <mxPoint x="-31677.5" y="-15055" as="sourcePoint" />
            <mxPoint x="-31671.5" y="-15019" as="targetPoint" />
          </mxGeometry>
        </mxCell>
        <mxCell id="SaxFCq5MfIyH9ILcLWhI-14" value="" style="endArrow=none;html=1;rounded=0;exitX=0;exitY=1;exitDx=0;exitDy=0;entryX=0.75;entryY=0;entryDx=0;entryDy=0;" edge="1" parent="1" source="_-Cq7pc6418bO_3nFrA7-53" target="_-Cq7pc6418bO_3nFrA7-45">
          <mxGeometry relative="1" as="geometry">
            <mxPoint x="-31607.5" y="-15065" as="sourcePoint" />
            <mxPoint x="-31601.5" y="-15029" as="targetPoint" />
          </mxGeometry>
        </mxCell>
        <mxCell id="SaxFCq5MfIyH9ILcLWhI-15" value="" style="endArrow=none;html=1;rounded=0;exitX=0;exitY=0.5;exitDx=0;exitDy=0;entryX=1;entryY=0.75;entryDx=0;entryDy=0;" edge="1" parent="1" source="_-Cq7pc6418bO_3nFrA7-50" target="_-Cq7pc6418bO_3nFrA7-45">
          <mxGeometry relative="1" as="geometry">
            <mxPoint x="-31477.5" y="-15035" as="sourcePoint" />
            <mxPoint x="-31471.5" y="-14999" as="targetPoint" />
          </mxGeometry>
        </mxCell>
        <mxCell id="SaxFCq5MfIyH9ILcLWhI-16" value="Registers" style="shape=rhombus;perimeter=rhombusPerimeter;whiteSpace=wrap;html=1;align=center;" vertex="1" parent="1">
          <mxGeometry x="-31695" y="-15440" width="100" height="60" as="geometry" />
        </mxCell>
        <mxCell id="SaxFCq5MfIyH9ILcLWhI-17" value="" style="endArrow=none;html=1;rounded=0;exitX=0;exitY=0.5;exitDx=0;exitDy=0;entryX=0.75;entryY=1;entryDx=0;entryDy=0;" edge="1" parent="1" source="SaxFCq5MfIyH9ILcLWhI-16" target="btj04kFpX4r5q9AqIZzk-35">
          <mxGeometry relative="1" as="geometry">
            <mxPoint x="-31720" y="-15290" as="sourcePoint" />
            <mxPoint x="-31560" y="-15290" as="targetPoint" />
            <Array as="points">
              <mxPoint x="-31735" y="-15410" />
            </Array>
          </mxGeometry>
        </mxCell>
        <mxCell id="SaxFCq5MfIyH9ILcLWhI-18" value="1" style="resizable=0;html=1;whiteSpace=wrap;align=right;verticalAlign=bottom;" connectable="0" vertex="1" parent="SaxFCq5MfIyH9ILcLWhI-17">
          <mxGeometry x="1" relative="1" as="geometry">
            <mxPoint x="-10" y="30" as="offset" />
          </mxGeometry>
        </mxCell>
        <mxCell id="SaxFCq5MfIyH9ILcLWhI-19" value="" style="endArrow=none;html=1;rounded=0;exitX=1;exitY=0.5;exitDx=0;exitDy=0;entryX=0.25;entryY=1;entryDx=0;entryDy=0;" edge="1" parent="1" source="SaxFCq5MfIyH9ILcLWhI-16" target="btj04kFpX4r5q9AqIZzk-34">
          <mxGeometry relative="1" as="geometry">
            <mxPoint x="-31620" y="-15360" as="sourcePoint" />
            <mxPoint x="-31460" y="-15360" as="targetPoint" />
            <Array as="points">
              <mxPoint x="-31535" y="-15410" />
            </Array>
          </mxGeometry>
        </mxCell>
        <mxCell id="SaxFCq5MfIyH9ILcLWhI-20" value="N" style="resizable=0;html=1;whiteSpace=wrap;align=right;verticalAlign=bottom;" connectable="0" vertex="1" parent="SaxFCq5MfIyH9ILcLWhI-19">
          <mxGeometry x="1" relative="1" as="geometry">
            <mxPoint x="-7" y="20" as="offset" />
          </mxGeometry>
        </mxCell>
        <mxCell id="SaxFCq5MfIyH9ILcLWhI-23" value="Reviews" style="shape=rhombus;perimeter=rhombusPerimeter;whiteSpace=wrap;html=1;align=center;" vertex="1" parent="1">
          <mxGeometry x="-32010" y="-15395" width="120" height="60" as="geometry" />
        </mxCell>
        <mxCell id="SaxFCq5MfIyH9ILcLWhI-27" value="" style="endArrow=none;html=1;rounded=0;exitX=0.5;exitY=0;exitDx=0;exitDy=0;entryX=1;entryY=1;entryDx=0;entryDy=0;" edge="1" parent="1" source="SaxFCq5MfIyH9ILcLWhI-23" target="btj04kFpX4r5q9AqIZzk-36">
          <mxGeometry relative="1" as="geometry">
            <mxPoint x="-31430" y="-15230" as="sourcePoint" />
            <mxPoint x="-31270" y="-15230" as="targetPoint" />
          </mxGeometry>
        </mxCell>
        <mxCell id="SaxFCq5MfIyH9ILcLWhI-28" value="N" style="resizable=0;html=1;whiteSpace=wrap;align=right;verticalAlign=bottom;" connectable="0" vertex="1" parent="SaxFCq5MfIyH9ILcLWhI-27">
          <mxGeometry x="1" relative="1" as="geometry">
            <mxPoint x="20" y="20" as="offset" />
          </mxGeometry>
        </mxCell>
        <mxCell id="SaxFCq5MfIyH9ILcLWhI-29" value="" style="endArrow=none;html=1;rounded=0;exitX=0.5;exitY=1;exitDx=0;exitDy=0;entryX=0;entryY=1;entryDx=0;entryDy=0;" edge="1" parent="1" source="SaxFCq5MfIyH9ILcLWhI-23" target="btj04kFpX4r5q9AqIZzk-78">
          <mxGeometry relative="1" as="geometry">
            <mxPoint x="-31430" y="-15200" as="sourcePoint" />
            <mxPoint x="-31270" y="-15200" as="targetPoint" />
            <Array as="points">
              <mxPoint x="-31964" y="-14950" />
              <mxPoint x="-31320" y="-14950" />
              <mxPoint x="-31320" y="-15480" />
              <mxPoint x="-31180" y="-15480" />
            </Array>
          </mxGeometry>
        </mxCell>
        <mxCell id="SaxFCq5MfIyH9ILcLWhI-30" value="N" style="resizable=0;html=1;whiteSpace=wrap;align=right;verticalAlign=bottom;" connectable="0" vertex="1" parent="SaxFCq5MfIyH9ILcLWhI-29">
          <mxGeometry x="1" relative="1" as="geometry">
            <mxPoint x="-10" y="30" as="offset" />
          </mxGeometry>
        </mxCell>
        <mxCell id="SaxFCq5MfIyH9ILcLWhI-31" value="" style="endArrow=none;html=1;rounded=0;entryX=0.5;entryY=0;entryDx=0;entryDy=0;exitX=0;exitY=0.5;exitDx=0;exitDy=0;" edge="1" parent="1" source="SaxFCq5MfIyH9ILcLWhI-33" target="btj04kFpX4r5q9AqIZzk-36">
          <mxGeometry relative="1" as="geometry">
            <mxPoint x="-31200" y="-16130" as="sourcePoint" />
            <mxPoint x="-31290" y="-15720" as="targetPoint" />
            <Array as="points">
              <mxPoint x="-32010" y="-16130" />
            </Array>
          </mxGeometry>
        </mxCell>
        <mxCell id="SaxFCq5MfIyH9ILcLWhI-32" value="N" style="resizable=0;html=1;whiteSpace=wrap;align=right;verticalAlign=bottom;" connectable="0" vertex="1" parent="SaxFCq5MfIyH9ILcLWhI-31">
          <mxGeometry x="1" relative="1" as="geometry" />
        </mxCell>
        <mxCell id="SaxFCq5MfIyH9ILcLWhI-33" value="Prescribes" style="shape=rhombus;perimeter=rhombusPerimeter;whiteSpace=wrap;html=1;align=center;" vertex="1" parent="1">
          <mxGeometry x="-31190" y="-16160" width="120" height="60" as="geometry" />
        </mxCell>
        <mxCell id="SaxFCq5MfIyH9ILcLWhI-34" value="" style="endArrow=none;html=1;rounded=0;exitX=1;exitY=0.5;exitDx=0;exitDy=0;entryX=0.5;entryY=0;entryDx=0;entryDy=0;" edge="1" parent="1" source="SaxFCq5MfIyH9ILcLWhI-33" target="btj04kFpX4r5q9AqIZzk-93">
          <mxGeometry relative="1" as="geometry">
            <mxPoint x="-30990" y="-15980" as="sourcePoint" />
            <mxPoint x="-30830" y="-15980" as="targetPoint" />
            <Array as="points">
              <mxPoint x="-30510" y="-16130" />
            </Array>
          </mxGeometry>
        </mxCell>
        <mxCell id="SaxFCq5MfIyH9ILcLWhI-35" value="N" style="resizable=0;html=1;whiteSpace=wrap;align=right;verticalAlign=bottom;" connectable="0" vertex="1" parent="SaxFCq5MfIyH9ILcLWhI-34">
          <mxGeometry x="1" relative="1" as="geometry">
            <mxPoint x="20" y="-10" as="offset" />
          </mxGeometry>
        </mxCell>
        <mxCell id="SaxFCq5MfIyH9ILcLWhI-36" value="Diagnoses" style="shape=rhombus;perimeter=rhombusPerimeter;whiteSpace=wrap;html=1;align=center;" vertex="1" parent="1">
          <mxGeometry x="-30210" y="-15160" width="120" height="60" as="geometry" />
        </mxCell>
        <mxCell id="SaxFCq5MfIyH9ILcLWhI-37" value="" style="endArrow=none;html=1;rounded=0;entryX=0;entryY=0;entryDx=0;entryDy=0;exitX=1;exitY=0.5;exitDx=0;exitDy=0;" edge="1" parent="1" source="SaxFCq5MfIyH9ILcLWhI-36" target="btj04kFpX4r5q9AqIZzk-36">
          <mxGeometry relative="1" as="geometry">
            <mxPoint x="-31380" y="-15870" as="sourcePoint" />
            <mxPoint x="-31220" y="-15870" as="targetPoint" />
            <Array as="points">
              <mxPoint x="-30050" y="-15130" />
              <mxPoint x="-30050" y="-16210" />
              <mxPoint x="-32060" y="-16230" />
            </Array>
          </mxGeometry>
        </mxCell>
        <mxCell id="SaxFCq5MfIyH9ILcLWhI-38" value="N" style="resizable=0;html=1;whiteSpace=wrap;align=right;verticalAlign=bottom;" connectable="0" vertex="1" parent="SaxFCq5MfIyH9ILcLWhI-37">
          <mxGeometry x="1" relative="1" as="geometry" />
        </mxCell>
        <mxCell id="SaxFCq5MfIyH9ILcLWhI-39" value="" style="endArrow=none;html=1;rounded=0;exitX=0.5;exitY=0;exitDx=0;exitDy=0;entryX=1;entryY=0.5;entryDx=0;entryDy=0;" edge="1" parent="1" source="SaxFCq5MfIyH9ILcLWhI-36" target="btj04kFpX4r5q9AqIZzk-135">
          <mxGeometry relative="1" as="geometry">
            <mxPoint x="-30220" y="-15060" as="sourcePoint" />
            <mxPoint x="-30060" y="-15060" as="targetPoint" />
            <Array as="points">
              <mxPoint x="-30150" y="-15255" />
            </Array>
          </mxGeometry>
        </mxCell>
        <mxCell id="SaxFCq5MfIyH9ILcLWhI-40" value="N" style="resizable=0;html=1;whiteSpace=wrap;align=right;verticalAlign=bottom;" connectable="0" vertex="1" parent="SaxFCq5MfIyH9ILcLWhI-39">
          <mxGeometry x="1" relative="1" as="geometry">
            <mxPoint x="21" y="25" as="offset" />
          </mxGeometry>
        </mxCell>
        <mxCell id="SaxFCq5MfIyH9ILcLWhI-41" value="" style="endArrow=none;html=1;rounded=0;exitX=0.5;exitY=1;exitDx=0;exitDy=0;entryX=1;entryY=0.75;entryDx=0;entryDy=0;" edge="1" parent="1" source="SaxFCq5MfIyH9ILcLWhI-36" target="btj04kFpX4r5q9AqIZzk-185">
          <mxGeometry relative="1" as="geometry">
            <mxPoint x="-29990" y="-15165" as="sourcePoint" />
            <mxPoint x="-30300" y="-15260" as="targetPoint" />
            <Array as="points">
              <mxPoint x="-30150" y="-14920" />
            </Array>
          </mxGeometry>
        </mxCell>
        <mxCell id="SaxFCq5MfIyH9ILcLWhI-42" value="N" style="resizable=0;html=1;whiteSpace=wrap;align=right;verticalAlign=bottom;" connectable="0" vertex="1" parent="SaxFCq5MfIyH9ILcLWhI-41">
          <mxGeometry x="1" relative="1" as="geometry">
            <mxPoint x="21" y="25" as="offset" />
          </mxGeometry>
        </mxCell>
        <mxCell id="SaxFCq5MfIyH9ILcLWhI-43" value="Performs" style="shape=rhombus;perimeter=rhombusPerimeter;whiteSpace=wrap;html=1;align=center;" vertex="1" parent="1">
          <mxGeometry x="-31430" y="-14520" width="120" height="60" as="geometry" />
        </mxCell>
        <mxCell id="SaxFCq5MfIyH9ILcLWhI-44" value="" style="endArrow=none;html=1;rounded=0;entryX=0.25;entryY=1;entryDx=0;entryDy=0;exitX=0;exitY=0.5;exitDx=0;exitDy=0;" edge="1" parent="1" source="SaxFCq5MfIyH9ILcLWhI-43" target="btj04kFpX4r5q9AqIZzk-36">
          <mxGeometry relative="1" as="geometry">
            <mxPoint x="-31440" y="-14488.9375" as="sourcePoint" />
            <mxPoint x="-31650" y="-15150" as="targetPoint" />
            <Array as="points">
              <mxPoint x="-32040" y="-14490" />
            </Array>
          </mxGeometry>
        </mxCell>
        <mxCell id="SaxFCq5MfIyH9ILcLWhI-45" value="N" style="resizable=0;html=1;whiteSpace=wrap;align=right;verticalAlign=bottom;" connectable="0" vertex="1" parent="SaxFCq5MfIyH9ILcLWhI-44">
          <mxGeometry x="1" relative="1" as="geometry">
            <mxPoint x="-5" y="20" as="offset" />
          </mxGeometry>
        </mxCell>
        <mxCell id="SaxFCq5MfIyH9ILcLWhI-46" value="" style="endArrow=none;html=1;rounded=0;exitX=1;exitY=0.5;exitDx=0;exitDy=0;entryX=0.5;entryY=1;entryDx=0;entryDy=0;" edge="1" parent="1" source="SaxFCq5MfIyH9ILcLWhI-43" target="_-Cq7pc6418bO_3nFrA7-27">
          <mxGeometry relative="1" as="geometry">
            <mxPoint x="-30960" y="-14690" as="sourcePoint" />
            <mxPoint x="-30800" y="-14690" as="targetPoint" />
            <Array as="points">
              <mxPoint x="-30430" y="-14490" />
            </Array>
          </mxGeometry>
        </mxCell>
        <mxCell id="SaxFCq5MfIyH9ILcLWhI-47" value="N" style="resizable=0;html=1;whiteSpace=wrap;align=right;verticalAlign=bottom;" connectable="0" vertex="1" parent="SaxFCq5MfIyH9ILcLWhI-46">
          <mxGeometry x="1" relative="1" as="geometry">
            <mxPoint y="18" as="offset" />
          </mxGeometry>
        </mxCell>
      </root>
    </mxGraphModel>
  </diagram>
</mxfile>
